<svg width="200" height="231" viewBox="0 0 200 231" fill="none" xmlns="http://www.w3.org/2000/svg">
<circle cx="43.984" cy="107.017" r="155.017" fill="#FBA821"/>
<circle cx="21.0172" cy="107.017" r="155.017" fill="#7F1052"/>
<g opacity="0.5" filter="url(#filter0_f)">
<path d="M7.98315 32.3792C31.034 32.3792 49.4605 37.7002 63.2626 48.3422C77.207 58.8404 84.1792 78.183 84.1792 106.37C84.1792 133.982 77.3493 153.468 63.6895 164.829C50.172 176.046 32.8127 181.655 11.6115 181.655H-30.6484V32.3792H7.98315ZM0.726385 55.6765V158.358H13.5324C25.627 158.358 34.947 154.619 41.4923 147.14C48.1799 139.518 51.5237 125.928 51.5237 106.37C51.5237 92.8517 49.8163 82.3535 46.4013 74.8753C43.1286 67.3971 38.7177 62.3637 33.1684 59.7752C27.6191 57.0427 20.8603 55.6765 12.8921 55.6765H0.726385Z" fill="white"/>
</g>
<path d="M7.98315 32.3792C31.034 32.3792 49.4605 37.7002 63.2626 48.3422C77.207 58.8404 84.1792 78.183 84.1792 106.37C84.1792 133.982 77.3493 153.468 63.6895 164.829C50.172 176.046 32.8127 181.655 11.6115 181.655H-30.6484V32.3792H7.98315ZM0.726385 55.6765V158.358H13.5324C25.627 158.358 34.947 154.619 41.4923 147.14C48.1799 139.518 51.5237 125.928 51.5237 106.37C51.5237 92.8517 49.8163 82.3535 46.4013 74.8753C43.1286 67.3971 38.7177 62.3638 33.1684 59.7752C27.6191 57.0427 20.8603 55.6765 12.8921 55.6765H0.726385Z" fill="white"/>
<defs>
<filter id="filter0_f" x="-38.6484" y="24.3792" width="130.828" height="165.276" filterUnits="userSpaceOnUse" color-interpolation-filters="sRGB">
<feFlood flood-opacity="0" result="BackgroundImageFix"/>
<feBlend mode="normal" in="SourceGraphic" in2="BackgroundImageFix" result="shape"/>
<feGaussianBlur stdDeviation="4" result="effect1_foregroundBlur"/>
</filter>
</defs>
</svg>
