<svg fill="none" height="15" viewBox="0 0 16 15" width="16" xmlns="http://www.w3.org/2000/svg" xmlns:xlink="http://www.w3.org/1999/xlink"><filter id="a" color-interpolation-filters="sRGB" filterUnits="userSpaceOnUse" height="9.17241" width="7.51724" x="3.96582" y="2.86207"><feFlood flood-opacity="0" result="BackgroundImageFix"/><feBlend in="SourceGraphic" in2="BackgroundImageFix" mode="normal" result="shape"/><feGaussianBlur result="effect1_foregroundBlur" stdDeviation=".5"/></filter><circle cx="8.55179" cy="7.44828" fill="#fba821" r="7.44828"/><circle cx="7.44828" cy="7.44828" fill="#7f1052" r="7.44828"/><g filter="url(#a)" opacity=".5"><path d="m6.82199 3.86207c1.10755 0 1.99291.25566 2.65607.76699.67004.50442 1.00504 1.43379 1.00504 2.78812 0 1.32669-.3282 2.26297-.98453 2.80882-.64949.539-1.48357.8085-2.50224.8085h-2.03051v-7.17243zm-.34867 1.11939v4.93363h.6153c.58113 0 1.02893-.17966 1.34342-.53897.32133-.36622.48199-1.0192.48199-1.95894 0-.64952-.08204-1.15394-.24612-1.51325-.15725-.35932-.36918-.60116-.63582-.72554-.26663-.13128-.59137-.19693-.97423-.19693z" fill="#fff"/></g><path d="m6.82199 3.86207c1.10755 0 1.99291.25566 2.65607.76699.67004.50442 1.00504 1.43379 1.00504 2.78812 0 1.32669-.3282 2.26297-.98453 2.80882-.64949.539-1.48357.8085-2.50224.8085h-2.03051v-7.17243zm-.34867 1.11939v4.93363h.6153c.58113 0 1.02893-.17966 1.34342-.53897.32133-.36622.48199-1.0192.48199-1.95894 0-.64952-.08204-1.15394-.24612-1.51325-.15725-.35932-.36918-.60116-.63582-.72554-.26663-.13128-.59137-.19693-.97423-.19693z" fill="#fff"/></svg>