<svg width="31" height="38" viewBox="0 0 31 38" fill="none" xmlns="http://www.w3.org/2000/svg">
<path d="M15.7077 0.78432C17.545 0.773595 19.1642 4.93066 19.952 10.9555C25.1646 8.59714 29.3199 7.92025 30.3165 9.52866L30.553 9.38049L15.7051 0.458984L15.7077 0.78432Z" fill="url(#paint0_linear)"/>
<path d="M1.00586 9.64715L1.2408 9.79055C2.21762 8.17063 6.37928 8.77323 11.6225 11.0331C12.3124 5.00109 13.8616 0.817406 15.6951 0.785628L15.6929 0.463867L1.00586 9.64715Z" fill="url(#paint1_linear)"/>
<path d="M15.707 0.783203L15.8058 13.0689C17.233 12.2621 18.6263 11.5538 19.9514 10.9544C19.1646 4.93749 17.5484 0.7836 15.7145 0.783203C15.7119 0.783203 15.7097 0.783203 15.707 0.783203Z" fill="url(#paint2_linear)"/>
<path d="M11.6211 11.0307C12.9544 11.6051 14.3578 12.2867 15.7962 13.0661L15.6937 0.783203C13.8602 0.814982 12.311 4.99866 11.6211 11.0307Z" fill="url(#paint3_linear)"/>
<path d="M1.23828 9.78886L11.2724 15.8777C11.3289 14.1704 11.4475 12.5429 11.62 11.0314C8.38539 9.63751 5.56231 8.87402 3.64459 8.87402C2.45378 8.87402 1.6124 9.16838 1.23828 9.78886Z" fill="url(#paint4_linear)"/>
<path d="M11.2734 15.8785L11.2936 15.8904C12.0063 15.3998 12.7463 14.9144 13.5095 14.4369C14.278 13.9567 15.0415 13.5022 15.7961 13.0756V13.0677C14.3576 12.2883 12.9543 11.6066 11.621 11.0322C11.4485 12.5437 11.3299 14.1712 11.2734 15.8785Z" fill="url(#paint5_linear)"/>
<path d="M19.9512 10.9548C20.1472 12.4531 20.2916 14.0671 20.3754 15.7609L30.3157 9.52788C29.9468 8.93243 29.1458 8.65039 28.0186 8.65039C26.0994 8.65039 23.2352 9.4687 19.9512 10.9548Z" fill="url(#paint6_linear)"/>
<path d="M15.8066 13.0696V13.0723C16.5691 13.4863 17.3416 13.9268 18.119 14.3939C18.8807 14.8512 19.6193 15.3179 20.3327 15.789L20.3765 15.7612C20.2927 14.0674 20.1483 12.4534 19.9522 10.9551C18.6271 11.5545 17.2339 12.2628 15.8066 13.0696Z" fill="url(#paint7_linear)"/>
<path d="M0.991336 28.151L1.25621 27.9858C0.329151 26.3019 2.91205 22.7363 7.43361 19.0011C2.90531 15.3847 0.276401 11.9009 1.09122 10.1805L0.852539 10.0371L0.991336 28.151Z" fill="url(#paint8_linear)"/>
<path d="M1.26383 28L1.00195 28.1633L15.8319 37.0836L15.8308 36.7968C14.0216 36.7074 12.4346 32.5785 11.6586 26.626C6.39221 29.0058 2.20586 29.6716 1.26383 28Z" fill="url(#paint9_linear)"/>
<path d="M11.6572 26.6258C12.4331 32.5784 14.0201 36.7072 15.8294 36.7966L15.7841 24.5244C14.3636 25.326 12.9764 26.0299 11.6572 26.6258Z" fill="url(#paint10_linear)"/>
<path d="M1.25579 27.9866L11.2293 21.7588C9.85821 20.8487 8.58434 19.9208 7.43319 19.002C2.91163 22.7372 0.328733 26.3027 1.25579 27.9866Z" fill="url(#paint11_linear)"/>
<path d="M1.26172 27.9996C2.20374 29.6712 6.39009 29.0054 11.6565 26.6255C11.459 25.1129 11.3138 23.4814 11.2311 21.7686L1.26172 27.9996Z" fill="url(#paint12_linear)"/>
<path d="M11.2324 21.7682C11.3151 23.4811 11.4603 25.1125 11.6578 26.6252C12.9769 26.0294 14.3641 25.3255 15.7847 24.5238V24.4996C15.0282 24.0893 14.262 23.6511 13.4917 23.1871C12.7158 22.7208 11.9638 22.2453 11.2392 21.7646L11.2324 21.7682Z" fill="url(#paint13_linear)"/>
<path d="M7.433 19.0022C8.55759 18.0735 9.80228 17.134 11.1424 16.2101L1.09062 10.1816C0.275797 11.9021 2.90471 15.3858 7.433 19.0022Z" fill="url(#paint14_linear)"/>
<path d="M7.43359 19.0031C8.58475 19.9219 9.85861 20.8499 11.2298 21.7599L11.2324 21.7579C11.1882 20.8499 11.162 19.9191 11.1546 18.9701C11.1474 18.0418 11.159 17.1289 11.1875 16.2379L11.143 16.2109C9.80287 17.1349 8.55819 18.0744 7.43359 19.0031Z" fill="url(#paint15_linear)"/>
<path d="M16.3145 36.872L16.3193 37.1636L30.9517 27.8492L30.6827 27.6907C29.7864 29.3932 25.5817 28.8379 20.2561 26.5947C19.6179 32.5731 18.1237 36.7453 16.3145 36.872Z" fill="url(#paint16_linear)"/>
<path d="M30.4393 9.88721C31.2844 11.5878 28.7378 15.1347 24.3008 18.8639C28.9032 22.4756 31.5669 25.9697 30.6877 27.679L30.9533 27.8359L30.672 9.74023L30.4393 9.88721Z" fill="url(#paint17_linear)"/>
<path d="M20.502 16.1523C21.8735 17.0465 23.1477 17.9581 24.3015 18.8634C28.7385 15.1342 31.2851 11.5873 30.44 9.88672L20.502 16.1523Z" fill="url(#paint18_linear)"/>
<path d="M20.2559 26.5947C25.5814 28.8379 29.7861 29.3933 30.6825 27.6907L20.569 21.7227C20.5256 23.4391 20.4182 25.0753 20.2559 26.5947Z" fill="url(#paint19_linear)"/>
<path d="M20.5742 21.7158L30.6877 27.6783C31.5669 25.969 28.9032 22.4749 24.3008 18.8633C23.1721 19.8111 21.9222 20.7712 20.5742 21.7158Z" fill="url(#paint20_linear)"/>
<path d="M20.4834 16.1656C20.5339 17.0662 20.5668 17.9893 20.5807 18.9296C20.5956 19.8758 20.5911 20.8053 20.5687 21.713L20.5754 21.717C21.9234 20.7724 23.1733 19.8123 24.302 18.8644C23.1482 17.9592 21.874 17.0475 20.5025 16.1533L20.4834 16.1656Z" fill="url(#paint21_linear)"/>
<path d="M16.313 36.8727C18.1223 36.746 19.6165 32.5738 20.2547 26.5954C18.9315 26.0373 17.5371 25.3755 16.1084 24.6172L16.313 36.8727Z" fill="url(#paint22_linear)"/>
<path d="M18.3434 23.2067C17.5925 23.685 16.8458 24.1375 16.1084 24.5637L16.1095 24.6177C17.5383 25.376 18.9326 26.0378 20.2558 26.5959C20.4182 25.0765 20.5256 23.4403 20.569 21.7238L20.5664 21.7227C19.8514 22.2232 19.1092 22.7197 18.3434 23.2067Z" fill="url(#paint23_linear)"/>
<defs>
<linearGradient id="paint0_linear" x1="14.1015" y1="3.46778" x2="29.3677" y2="11.6041" gradientUnits="userSpaceOnUse">
<stop stop-color="#662C91"/>
<stop offset="1" stop-color="#EE287C"/>
</linearGradient>
<linearGradient id="paint1_linear" x1="4.64002" y1="2.82807" x2="13.4839" y2="7.54149" gradientUnits="userSpaceOnUse">
<stop stop-color="#662C91"/>
<stop offset="1" stop-color="#EE287C"/>
</linearGradient>
<linearGradient id="paint2_linear" x1="13.2839" y1="5.32988" x2="20.811" y2="9.3415" gradientUnits="userSpaceOnUse">
<stop stop-color="#662C91"/>
<stop offset="1" stop-color="#EE287C"/>
</linearGradient>
<linearGradient id="paint3_linear" x1="12.3551" y1="5.12443" x2="18.3313" y2="8.30952" gradientUnits="userSpaceOnUse">
<stop stop-color="#662C91"/>
<stop offset="1" stop-color="#EE287C"/>
</linearGradient>
<linearGradient id="paint4_linear" x1="2.23443" y1="7.91939" x2="12.5765" y2="13.4313" gradientUnits="userSpaceOnUse">
<stop stop-color="#662C91"/>
<stop offset="1" stop-color="#EE287C"/>
</linearGradient>
<linearGradient id="paint5_linear" x1="10.6966" y1="12.7677" x2="14.796" y2="14.9525" gradientUnits="userSpaceOnUse">
<stop stop-color="#662C91"/>
<stop offset="1" stop-color="#EE287C"/>
</linearGradient>
<linearGradient id="paint6_linear" x1="20.6153" y1="9.70898" x2="28.0946" y2="13.6952" gradientUnits="userSpaceOnUse">
<stop stop-color="#662C91"/>
<stop offset="1" stop-color="#EE287C"/>
</linearGradient>
<linearGradient id="paint7_linear" x1="16.7356" y1="11.3267" x2="21.4117" y2="13.8188" gradientUnits="userSpaceOnUse">
<stop stop-color="#662C91"/>
<stop offset="1" stop-color="#EE287C"/>
</linearGradient>
<linearGradient id="paint8_linear" x1="4.24753" y1="28.1223" x2="4.08983" y2="10.0091" gradientUnits="userSpaceOnUse">
<stop stop-color="#1375BC"/>
<stop offset="1" stop-color="#24AAE1"/>
</linearGradient>
<linearGradient id="paint9_linear" x1="8.4525" y1="37.1475" x2="8.36114" y2="26.6545" gradientUnits="userSpaceOnUse">
<stop stop-color="#1375BC"/>
<stop offset="1" stop-color="#24AAE1"/>
</linearGradient>
<linearGradient id="paint10_linear" x1="13.8075" y1="36.8135" x2="13.7007" y2="24.5424" gradientUnits="userSpaceOnUse">
<stop stop-color="#1375BC"/>
<stop offset="1" stop-color="#24AAE1"/>
</linearGradient>
<linearGradient id="paint11_linear" x1="6.17553" y1="27.9436" x2="6.09777" y2="19.0133" gradientUnits="userSpaceOnUse">
<stop stop-color="#1375BC"/>
<stop offset="1" stop-color="#24AAE1"/>
</linearGradient>
<linearGradient id="paint12_linear" x1="6.4715" y1="28.9019" x2="6.40976" y2="21.8105" gradientUnits="userSpaceOnUse">
<stop stop-color="#1375BC"/>
<stop offset="1" stop-color="#24AAE1"/>
</linearGradient>
<linearGradient id="paint13_linear" x1="13.5353" y1="26.6089" x2="13.493" y2="21.7449" gradientUnits="userSpaceOnUse">
<stop stop-color="#1375BC"/>
<stop offset="1" stop-color="#24AAE1"/>
</linearGradient>
<linearGradient id="paint14_linear" x1="6.08503" y1="19.0135" x2="6.00776" y2="10.1389" gradientUnits="userSpaceOnUse">
<stop stop-color="#1375BC"/>
<stop offset="1" stop-color="#24AAE1"/>
</linearGradient>
<linearGradient id="paint15_linear" x1="9.34349" y1="21.7757" x2="9.29518" y2="16.2268" gradientUnits="userSpaceOnUse">
<stop stop-color="#1375BC"/>
<stop offset="1" stop-color="#24AAE1"/>
</linearGradient>
<linearGradient id="paint16_linear" x1="29.2774" y1="24.8832" x2="14.1942" y2="33.3995" gradientUnits="userSpaceOnUse">
<stop stop-color="#F26521"/>
<stop offset="1" stop-color="#FFDD18"/>
</linearGradient>
<linearGradient id="paint17_linear" x1="34.4668" y1="16.4615" x2="25.7298" y2="21.3945" gradientUnits="userSpaceOnUse">
<stop stop-color="#F26521"/>
<stop offset="1" stop-color="#FFDD18"/>
</linearGradient>
<linearGradient id="paint18_linear" x1="31.4801" y1="11.7285" x2="21.2617" y2="17.4981" gradientUnits="userSpaceOnUse">
<stop stop-color="#F26521"/>
<stop offset="1" stop-color="#FFDD18"/>
</linearGradient>
<linearGradient id="paint19_linear" x1="28.1529" y1="23.2101" x2="20.7159" y2="27.4091" gradientUnits="userSpaceOnUse">
<stop stop-color="#F26521"/>
<stop offset="1" stop-color="#FFDD18"/>
</linearGradient>
<linearGradient id="paint20_linear" x1="28.7781" y1="22.4531" x2="22.8732" y2="25.7872" gradientUnits="userSpaceOnUse">
<stop stop-color="#F26521"/>
<stop offset="1" stop-color="#FFDD18"/>
</linearGradient>
<linearGradient id="paint21_linear" x1="23.3363" y1="17.1541" x2="19.2855" y2="19.4413" gradientUnits="userSpaceOnUse">
<stop stop-color="#F26521"/>
<stop offset="1" stop-color="#FFDD18"/>
</linearGradient>
<linearGradient id="paint22_linear" x1="20.9485" y1="27.8234" x2="13.5595" y2="31.9954" gradientUnits="userSpaceOnUse">
<stop stop-color="#F26521"/>
<stop offset="1" stop-color="#FFDD18"/>
</linearGradient>
<linearGradient id="paint23_linear" x1="21.5381" y1="23.4414" x2="16.9182" y2="26.0499" gradientUnits="userSpaceOnUse">
<stop stop-color="#F26521"/>
<stop offset="1" stop-color="#FFDD18"/>
</linearGradient>
</defs>
</svg>
