<svg fill="none" height="287" viewBox="0 0 546 287" width="546" xmlns="http://www.w3.org/2000/svg" xmlns:xlink="http://www.w3.org/1999/xlink"><filter id="a" color-interpolation-filters="sRGB" filterUnits="userSpaceOnUse" height="125.379" width="100.139" x="250.729" y="51.0352"><feFlood flood-opacity="0" result="BackgroundImageFix"/><feBlend in="SourceGraphic" in2="BackgroundImageFix" mode="normal" result="shape"/><feGaussianBlur result="effect1_foregroundBlur_4237_38950" stdDeviation="4"/></filter><circle cx="313.414" cy="113.725" fill="#fba821" r="113.586"/><circle cx="296.586" cy="113.725" fill="#7f1052" r="113.586"/><g filter="url(#a)" opacity=".5"><path d="m287.035 59.0352c16.89 0 30.392 3.8988 40.505 11.6966 10.218 7.6923 15.326 21.8652 15.326 42.5182 0 20.232-5.004 34.511-15.013 42.835-9.905 8.22-22.625 12.329-38.159 12.329h-30.965v-109.3788zm-5.317 17.0707v75.2371h9.383c8.862 0 15.691-2.739 20.487-8.219 4.9-5.585 7.351-15.543 7.351-29.874 0-9.905-1.252-17.5971-3.754-23.0766-2.398-5.4795-5.63-9.1676-9.696-11.0643-4.066-2.0022-9.018-3.0032-14.857-3.0032z" fill="#fff"/></g><path d="m287.035 59.0352c16.89 0 30.392 3.8988 40.505 11.6966 10.218 7.6923 15.326 21.8652 15.326 42.5182 0 20.232-5.004 34.511-15.013 42.835-9.905 8.22-22.625 12.329-38.159 12.329h-30.965v-109.3788zm-5.317 17.0707v75.2371h9.383c8.862 0 15.691-2.739 20.487-8.219 4.9-5.585 7.351-15.543 7.351-29.874 0-9.905-1.252-17.5971-3.754-23.0766-2.398-5.4795-5.63-9.1676-9.696-11.0643-4.066-2.0022-9.018-3.0032-14.857-3.0032z" fill="#fff"/><path d="m256.334 266.727-34.167-19.727-34.167 19.727 34.167 19.721z" fill="#e6e6e6"/><path d="m223.079 275.956-46.108-26.651v-40.742l-.971-.558v-13.595l47.079 27.184z" fill="#1977c3"/><path d="m223.079 275.956-46.108-26.651v-40.742l-.971-.558v-13.595l47.079 27.184z" fill="#000" opacity=".1"/><path d="m223.08 235.185-16.508-9.531-.006-13.613-1.133-.635-.006 13.589-28.454-16.431v1.955l28.454 16.424-.006 38.818 1.157.666-.006-38.825 16.508 9.531z" fill="#000" opacity=".15"/><path d="m223.078 275.956 45.856-26.459v-40.791l1.223-.701v-13.595l-47.079 27.184z" fill="#1977c3"/><path d="m268.934 208.707-28.203 16.286-.006-13.589-1.133.636v13.613l-16.514 9.53v1.949l16.508-9.525-.006 38.818 1.157-.665-.006-38.807 28.203-16.268z" fill="#000" opacity=".1"/><path d="m270.157 194.41-47.078-27.178-47.079 27.178 47.079 27.184z" fill="#1977c3"/><path d="m270.157 194.41-47.078-27.178-47.079 27.178 47.079 27.184z" fill="#fff" opacity=".4"/><path d="m215.155 194.952-22.503-10.13 1.001-.599 22.694 10.196" fill="#000" opacity=".15"/><path d="m230.998 194.952 22.502-10.13-1.007-.599-22.694 10.196" fill="#000" opacity=".15"/><path d="m240.726 211.404-16.706-12.402v-.006l-.941-.701-.006.006v-.006l-.947.701.006.006-16.712 12.402 1.139.636 16.514-12.336 16.52 12.336z" fill="#000" opacity=".15"/><path d="m252.503 204.607v55.711l-11.766 6.797-.012-55.71z" fill="#37474f"/><path d="m240.737 267.116-1.157-.689 1.157-.665z" fill="#263238"/><path d="m193.652 204.607v55.711l11.767 6.797.012-55.71z" fill="#263238"/><path d="m205.42 267.116 1.157-.689-1.157-.665z" fill="#000"/><path d="m205.431 211.405 17.653-13.103 6.731-3.891 22.689-10.19-11.767-6.797-17.653 13.103-6.726 3.89-22.706 10.191z" fill="#455a64"/><path d="m216.359 194.418-1.199.533 3.962 1.757 3.015 2.29.948-.702-2.944-2.182z" fill="#263238"/><path d="m240.725 211.405-20.584-15.291-26.489-11.893 11.773-6.797 20.602 15.291 26.477 11.893z" fill="#455a64"/><path d="m219.385 192.182s-13.828 11.479-36.408 8.865c0 0 9.59 6.276 21.315 4.855 0 0-1.684 4.28-11.563 9.489 0 0 24.678.228 31.056-20.26z" fill="#37474f"/><path d="m206.385 212.765c6.833-2.565 14.29-7.624 17.383-17.617l-4.4-2.949c-2.673 2.027-5.596 3.701-8.697 4.981 0 0 4.795 2.098 9.686.804-1.108 3.334-2.934 6.385-5.348 8.939-2.413 2.554-5.357 4.548-8.624 5.842z" fill="#263238"/><path d="m188.725 177.166s2.746-3.213 11.168-1.762c5.083.881 13.714 6.803 17.982 16.67.54 1.247 1.751 1.666 2.398 2.505.15.188.315.365.492.528l2.667.03c0-9.219-5.173-18.522-10.064-23.905-4.892-5.383-12.948-8.014-18.69-8.218-2.037-.094-4.066.296-5.923 1.139-1.564 4.357-2.211 8.679-.03 13.013z" fill="#37474f"/><path d="m217.287 190.832s4.795-1.618 2.823-9.303c2.07 4.247 3.196 8.891 3.303 13.613l-2.667-.03c-.177-.163-.341-.339-.492-.527-.647-.839-1.858-1.259-2.397-2.506-.174-.431-.372-.839-.57-1.247z" fill="#263238"/><path d="m193.642 183.07c-2.021-1.618-3.693-3.628-4.916-5.91-2.188-4.334-1.54-8.655 0-13.025-4.939 2.182-7.888 8.601-8.991 13.786-.599 2.902-.671 5.395-.18 6.594 1.385 3.261 9.495 16.436 44.231 10.634l-.036-3.651c-8.697-.539-23.886-3.189-30.108-8.428z" fill="#37474f"/><path d="m188.725 177.166s-.413-10.154 5.953-14.152c-2.037-.094-4.066.296-5.923 1.139-1.564 4.357-2.211 8.679-.03 13.013z" fill="#263238"/><path d="m226.771 192.182s13.829 11.479 36.409 8.865c0 0-9.591 6.276-21.316 4.855 0 0 1.685 4.28 11.563 9.489 0 0-24.678.228-31.056-20.26z" fill="#37474f"/><path d="m225.8 197.972c4.867 1.295 9.687-.803 9.687-.803l-.906-.408-.137-.06-.804-.378-.179-.084-.732-.365c-.062-.029-.122-.061-.18-.096-.233-.114-.455-.234-.677-.348l-.18-.096-.599-.341-.174-.096-.563-.324-.156-.09-.528-.3-.144-.083-.455-.288-.132-.084-.402-.264-.12-.078-.347-.234-.102-.071-.294-.204-.09-.066-.234-.168-.077-.06-.174-.132-.078-.06-.108-.078-.072-.054-.036-.036-.042-.03-1.439.965-2.961 1.985c6.372 20.488 31.05 20.26 31.056 20.26-12.695-.599-26.033-10.232-27.621-17.431z" fill="#263238"/><path d="m257.431 177.166s-2.745-3.213-11.167-1.762c-5.083.881-13.715 6.803-17.983 16.67-.539 1.247-1.75 1.666-2.397 2.505-.151.188-.315.365-.492.528l-2.667.03c0-9.219 5.173-18.522 10.064-23.905s12.947-8.014 18.69-8.218c2.036-.094 4.066.296 5.922 1.139 1.565 4.357 2.242 8.679.03 13.013z" fill="#37474f"/><path d="m228.87 190.832s-4.795-1.618-2.823-9.303c-2.069 4.247-3.196 8.891-3.303 13.613l2.668-.03c.176-.163.341-.339.491-.527.647-.839 1.858-1.259 2.398-2.506.174-.431.371-.839.569-1.247z" fill="#263238"/><path d="m252.516 183.07c2.02-1.618 3.692-3.628 4.915-5.91 2.188-4.334 1.541-8.655 0-13.025 4.939 2.182 7.889 8.601 8.992 13.786.599 2.902.671 5.395.179 6.594-1.384 3.261-9.494 16.436-44.231 10.634l.036-3.651c8.698-.539 23.887-3.189 30.109-8.428z" fill="#37474f"/><path d="m257.431 177.166s.413-10.154-5.952-14.152c2.036-.094 4.066.296 5.922 1.139 1.564 4.357 2.242 8.679.03 13.013z" fill="#263238"/><path d="m227.874 192.727c-.038-.352-.169-.689-.38-.974-.211-.286-.493-.51-.819-.65-1.154-.405-2.376-.58-3.597-.516-1.255-.064-2.51.14-3.68.6-.3.144-.557.363-.748.636-.19.273-.306.591-.337.922-.126 1.091-.204 2.937.515 3.986 1.185 1.015 2.702 1.559 4.262 1.529 1.554.034 3.064-.511 4.238-1.529.714-1.067.642-2.913.546-4.004z" fill="#455a64"/><path d="m312.328 273 47.092-27.189-46.433-26.803-47.092 27.188z" fill="#e0e0e0"/><path d="m312.664 267.752-39.546-22.85v-16.024l-.833-.485v-11.649l40.379 23.31z" fill="#ba68c8"/><path d="m312.664 267.752-39.546-22.85v-16.024l-.833-.485v-11.649l40.379 23.31z" fill="#fff" opacity=".3"/><path d="m312.663 251.704-15.142-8.74-24.404-14.085v1.678l39.546 22.813z" fill="#000" opacity=".15"/><path d="m312.664 267.752 39.31-22.688v-16.062l1.056-.609v-11.649l-40.366 23.31z" fill="#ba68c8"/><path d="m312.664 267.752 39.31-22.688v-16.062l1.056-.609v-11.649l-40.366 23.31z" fill="#fff" opacity=".45"/><path d="m351.986 229.004-39.322 22.701v1.665l39.322-22.675z" fill="#000" opacity=".1"/><path d="m353.03 216.745-40.366-23.309-40.379 23.309 40.379 23.31z" fill="#ba68c8"/><path d="m353.03 216.745-40.366-23.309-40.379 23.309 40.379 23.31z" fill="#fff" opacity=".6"/><path d="m329.049 258.293v-27.711l6.564-3.779v27.71z" fill="#37474f"/><path d="m296.267 258.293v-27.711l-6.564-3.779v27.71z" fill="#263238"/><path d="m335.614 226.802-40.366-23.31-6.564 3.792 40.366 23.297z" fill="#455a64"/><path d="m313.197 221.43 6.551-3.791-6.551-3.78-6.564 3.78z" fill="#000" opacity=".25"/><path d="m296.267 230.581 40.367-23.297-6.565-3.792-40.366 23.31z" fill="#455a64"/><path d="m337.702 206.601c-.606 2.061-1.696 3.947-3.18 5.499-1.484 1.553-3.318 2.728-5.349 3.427-5.038 1.735-10.255 2.902-15.552 3.481l15.838-20.164z" fill="#263238"/><path d="m313.659 219.008c-.141-3.806.78-7.577 2.66-10.89 3.033-4.761 13.178-9.274 13.178-9.274 3.074 2.215 5.845 4.823 8.242 7.757-4.421.332-8.724 1.584-12.633 3.675-3.909 2.092-7.338 4.977-10.067 8.471z" fill="#37474f"/><path d="m329.21 208.454c-2.521.913-4.918 2.137-7.136 3.642l-5.172-4.786c1.958-2.165 4.26-3.992 6.813-5.408z" fill="#455a64"/><path d="m313.66 219.008c1.618 2.723 4.061 4.861 6.974 6.104 4.973 2.238 13.278 1.852 13.278 1.852l.46-10.443c-.903 1.473-2.157 2.698-3.65 3.566-1.493.867-3.178 1.351-4.903 1.407-3.715.142-7.355-1.068-10.244-3.406z" fill="#263238"/><path d="m313.66 219.007c4.973-5.445 9.834-6.104 14.284-5.208 4.973.982 6.428 2.722 6.428 2.722l-.398 10.43c-2.322-3.508-5.868-6.025-9.946-7.061-7.123-2.051-10.368-.883-10.368-.883z" fill="#37474f"/><path d="m331.894 214.991c-1.143 1.766-2.971 4.65-4.115 6.477-1.182-.657-2.432-1.182-3.729-1.566-1.225-.359-2.471-.645-3.73-.858l4.327-5.569c1.131-.019 2.261.09 3.369.323 1.332.256 2.632.657 3.878 1.193z" fill="#455a64"/><path d="m313.919 217.839c-4.692-.688-9.061-2.797-12.519-6.041-3.289-3.579-5.545-7.983-6.527-12.743l8.988-6.03c-.688 2.361-.859 4.843-.501 7.276.359 2.433 1.238 4.76 2.577 6.822 1.763 3.081 4.621 5.385 8.007 6.452z" fill="#263238"/><path d="m313.919 217.841-1.355-.237c-.941-5.237-3.622-10.003-7.609-13.526-6.875-5.905-10.082-4.972-10.082-4.972 2.559-2.595 5.617-4.646 8.988-6.03 0 0 5.781 3.133 8.442 7.758 3.182 5.482 2.461 13.849 1.616 17.007z" fill="#37474f"/><path d="m299.834 200.447 7.583-4.972c.373.298.759.609 1.144.944l-7.459 4.849c-.41-.336-.858-.597-1.268-.821z" fill="#455a64"/><path d="m302.332 202.087 7.335-4.587c.74.731 1.414 1.525 2.014 2.374v.075c.199.286.398.584.572.895s.161.386.261.56l-6.129 4.139c-.46-.472-.957-.944-1.48-1.404-.895-.808-1.765-1.542-2.573-2.052z" fill="#455a64"/><path d="m313.709 218.995s-2.288 2.425-7.758 3.73-12.432.547-15.39-2.748l.609-9.684s4.6 6.216 11.313 7.26c5.109.796 11.188-1.243 11.188-1.243z" fill="#263238"/><path d="m314.08 216.772s-5.321-5.545-11.04-6.415c-7.757-1.181-11.835 0-11.835 0-1.329 3.058-1.544 6.484-.609 9.684 0 0 3.344-3.605 11.189-3.891 4.149.009 8.24.983 11.947 2.847z" fill="#37474f"/><path d="m292.19 218.807c1.68-1.001 3.516-1.716 5.432-2.113l1.007-6.788c-1.923-.124-3.853-.078-5.768.137-.798 2.849-1.026 5.827-.671 8.764z" fill="#455a64"/><path d="m461.006 215s-.345 6.222 4.282 9.683l4.854-1.463s-3.248-1.558-4.854-8.22z" fill="#ba68c8"/><path d="m528.452 41.9364s-2.819 5.5554-8.565 6.2335l-3.449-3.6997s3.568.2736 8.327-4.687z" fill="#455a64"/><path d="m519.626 233.415s-2.831 5.555-8.565 6.233l-3.45-3.699s3.569.273 8.328-4.687z" fill="#455a64"/><path d="m8 241.141s2.8193 5.568 8.5532 6.246l3.4617-3.7s-3.5688.274-8.3272-4.687z" fill="#455a64"/><path d="m140.703 71.2823s2.819 5.5554 8.553 6.2334l3.462-3.6996s-4.235.6543-8.97-4.3063z" fill="#455a64"/><path d="m77.6768 96.2773s-3.8305 4.9127-2.0105 10.3967l4.7584 1.559c-1.0246-3.237-.9912-6.717.0952-9.9333z" fill="#37474f"/><g fill="#ba68c8"><path d="m476.228 22.2966s-6.186.7733-9.945-3.5688l1.13-4.9368s1.773 3.1287 8.53 4.2707z"/><path d="m545.047 275.894s-6.186.774-9.957-3.569l1.13-4.936s1.772 3.105 8.482 4.294z"/><path d="m479.957 97.5056s-6.186.7733-9.957-3.5688l1.19-4.9368s1.772 3.1167 8.529 4.2707z"/><path d="m102.957 237.506s-6.186.773-9.957-3.569l1.1896-4.937s1.7725 3.117 8.5294 4.271z"/><path d="m536.043 122.984s-6.186.773-9.957-3.569l1.19-4.936s1.772 3.128 8.529 4.27z"/><path d="m82.5664 50.9666s6.1859.7732 9.9569-3.5688l-1.1896-4.9369s-1.7725 3.1287-8.5294 4.2707z"/><path d="m112.068 147.726s6.198.762 9.957-3.568l-1.189-4.937s-1.773 3.128-8.53 4.282z"/><path d="m.425781 90.2478s6.185909.7732 9.945019-3.5688l-1.1301-4.9368s-1.77251 3.1286-8.529416 4.2825z"/><path d="m523.838 162.242c6.876-4.175 14.62 9.005 10.575 14.466-.234.35-.538.648-.892.877-.353.23-.75.384-1.166.455-.598-.002-1.186-.155-1.71-.444s-.966-.705-1.288-1.21c-.915-2.569 4.521-2.379 5.58-1.915 1.461.592 2.697 1.631 3.53 2.969.834 1.338 1.222 2.906 1.109 4.478-.559 4.877-5.579 8.672-10.147 9.398-.238 0 0 .392.143.38 5.27-.285 11.051-4.984 11.075-10.563 0-4.473-7.043-11.147-11.206-7.138-3.878 3.783 2.7 6.555 5.508 3.569 2.807-2.986.844-8.256-.786-11.182-2.069-3.688-6.4-7.554-10.563-4.425-.131.107.095.38.238.297z"/><path d="m159.035 8.66398c6.02-.5948 14.133 9.44542 8.256 14.27512-3.259 2.6766-10.397 1.5108-10.314-3.4498.02-.1373.082-.265.178-.3653.096-.1002.221-.168.358-.1938 4.758-1.0825 9.409.9517 8.612 6.4595-.427 2.3638-1.644 4.5128-3.45 6.0964-1.806 1.5837-4.095 2.5084-6.495 2.6234-.285 0-.19-.4997 0-.5473 4.116-.8684 8.006-3.426 8.815-7.8275.185-.7791.201-1.5888.047-2.3746s-.474-1.5297-.939-2.1816c-.559-.6799-1.309-1.1771-2.153-1.4275-.702-.226-3.236-.6305-3.795 0-1.118 1.1896 1.903 3.093 2.807 3.4023.888.3226 1.836.4441 2.776.3556s1.849-.3846 2.661-.8672c2.498-1.7487 1.879-5.0438.666-7.3755-1.63-3.1405-4.497-5.71002-8.173-5.84088-.333 0-.154-.63048.108-.65428z"/><path d="m413.904 30.3979c-6.019.5948-14.144-9.4335-8.268-14.2752 3.26-2.6766 10.386-1.5227 10.314 3.4855-.016.1388-.077.2684-.174.3693-.096.1009-.223.1675-.361.1899-4.758 1.0825-9.398-.9398-8.601-6.4596.428-2.3624 1.645-4.50993 3.451-6.09158s4.096-2.50395 6.494-2.61622c.286 0 .179.48774 0 .53532-4.116.86841-8.006 3.42604-8.803 7.82758-.183.7785-.2 1.587-.048 2.3724.152.7853.468 1.5295.928 2.1837.559.6833 1.309 1.1844 2.154 1.4394.701.2261 3.247.6186 3.806 0 1.119-1.1896-1.915-3.0929-2.807-3.4022-.888-.3209-1.837-.4404-2.777-.3498-.94.0905-1.849.3888-2.66.8732-2.498 1.7368-1.879 5.032-.666 7.3636 1.618 3.1524 4.485 5.722 8.161 5.8409.333 0 .166.6305-.095.6543z"/><path d="m30.3791 16.9917c4.2825 2.3792 6.6855 11.4915 1.5702 14.18-4.342 2.2959-11.5034-.1071-8.9219-5.7814.0273-.0648.0715-.1211.128-.1629.0565-.0419.1232-.0678.1932-.0751 5.0795 0 5.3769 5.948 3.5093 9.4216-2.9026 5.4008-8.7079 3.9852-12.2053 0-.119-.1308 0-.5115.2141-.3687 3.0335 2.5219 7.4945 5.1509 10.6112 1.249 1.6655-2.0817 2.5934-5.9479.8447-8.3271-.4378-.6543-1.1111-1.1145-1.8796-1.2848-1.6417-.1784-1.7725 1.6179-1.1182 2.9264 1.0349 2.0818 3.9732 2.5695 6.055 2.3792 7.1376-.8089 4.5919-10.4328.8446-13.835-.1189-.0952 0-.4283.1547-.3331z"/><path d="m17.202 163.343c-6.852 4.271 1.4751 17.118 8.1726 15.953.4148-.046.816-.175 1.1799-.38.3638-.204.6827-.48.9376-.81.2739-.541.4056-1.142.3827-1.748s-.1996-1.195-.5136-1.714c-1.8915-1.975-4.1993 2.95-4.2231 4.116-.1267 1.572.2469 3.143 1.0674 4.489s2.0459 2.398 3.5007 3.006c4.6037 1.689 10.2543-1.095 12.9666-4.854.1427-.19.3569.155.2736.309-2.629 4.568-9.4216 7.638-14.4179 5.151-4.009-1.986-6.7926-11.301-1.3086-13.204 5.1153-1.773 4.6395 5.353.6662 6.507s-7.7562-2.962-9.6357-5.734c-2.3792-3.497-3.8662-9.1.7851-11.42.1546-.071.2974.262.1665.345z"/></g></svg>