<svg fill="none" height="519" viewBox="0 0 781 519" width="781" xmlns="http://www.w3.org/2000/svg" xmlns:xlink="http://www.w3.org/1999/xlink"><mask id="a" height="216" maskUnits="userSpaceOnUse" width="217" x="564" y="67"><path d="m780.385 174.73c0 2.43-.08 4.86-.25 7.27-.18 2.88-.489 5.74-.909 8.58-1.412 9.562-4.11 18.89-8.02 27.73-.2.44-.4.88-.6 1.32l-.301.66c-.1.22-.21.44-.31.65-.14.29-.269.57-.409.85-.17.35-.341.7-.521 1.05-.02.04-.04.09-.07.14-.15.3-.289.59-.449.89-.03.065-.063.129-.101.19-.17.34-.349.69-.529 1.03-.2.36-.39.73-.59 1.09-.48.89-.98 1.77-1.49 2.65-.15.26-.301.52-.461.78-.14.24-.28.48-.43.72-.1.16-.2.33-.3.49-.16.27-.32.53-.49.8-.37.59-.75 1.18-1.12 1.77h-.01c-.17.27-.35.54-.53.8v.01c-.53.8-1.08 1.6-1.63 2.39-.001 0-.002 0-.003.001-.002 0-.003.001-.004.002s-.001.002-.002.003c0 .001-.001.003-.001.004-.44.64-.9 1.26-1.35 1.88v.01c-.3.39-.59.79-.89 1.18-.24.32-.49.65-.74.97-.05.07-.11.13-.16.2v.01c-.07.09-.14.17-.21.26-1.06 1.36-2.153 2.69-3.28 3.99l-.18.21c-.06.07-.13.14-.19.22-.1.11-.19.22-.29.33-.09.11-.19.22-.29.33-5.873 6.616-12.532 12.489-19.83 17.49-.97.67-1.96 1.32-2.95 1.95-.25.16-.5.32-.75.47-.07.05-.15.1-.22.15-.14.08-.27.16-.41.25-.13.08-.26.16-.4.24-.53.33-1.07.65-1.61.97-.13.08-.27.16-.41.24-.13.07-.27.15-.41.23 0 .01 0 .01-.01.01h-.01v.01h-.01c-.67.39-1.35.77-2.04 1.14-.37.2-.75.41-1.13.6-.86.47-1.73.92-2.6 1.35-.31.15-.63.3-.94.46-.26.12-.52.25-.78.37-.08.04-.15.07-.22.11-.22.1-.43.2-.65.3-.24.11-.48.22-.71.33-.27.12-.53.24-.8.35-1 .45-2.01.88-3.02 1.29-3.619 1.484-7.318 2.766-11.08 3.84-.17.05-.35.1-.53.15-1.61.45-3.23.86-4.86 1.23-2.85.66-5.726 1.2-8.63 1.62h-.02c-.35.05-.69.1-1.04.15-.03 0-.06.01-.1.01 0 .01 0 .01-.01 0-.38.05-.77.1-1.15.15-.026.008-.053.011-.08.01-.36.05-.73.09-1.09.13-.39.04-.78.08-1.17.12-.3.03-.6.06-.9.09-.025.009-.053.012-.08.01-.27.02-.54.05-.81.07h-.04c-.23.02-.47.04-.7.06-2.79.22-5.59.32-8.43.32-3.07 0-6.12-.12-9.13-.38h-.03c-.65-.06-1.29-.12-1.93-.18-.17-.02-.33-.03-.5-.05-.03 0-.07-.01-.1-.01-.05-.01-.1-.01-.16-.02-.027.001-.054-.002-.08-.01-.22-.02-.44-.05-.67-.07l-.75-.09c-.25-.03-.5-.07-.75-.1-.06-.01-.11-.01-.17-.02-.18-.02-.36-.05-.54-.08-.09-.01-.18-.02-.26-.03-.18-.03-.35-.05-.53-.08h-.01c-5.487-.79-10.904-2.01-16.2-3.65-.28-.09-.56-.17-.84-.26-.01 0-.02-.01-.03-.01-.08-.03-.17-.05-.25-.08-.75-.24-1.49-.49-2.23-.75-1.02-.34-2.03-.71-3.04-1.09-.27-.11-.54-.21-.81-.32-.55-.21-1.09-.43-1.63-.65-.92-.37-1.84-.76-2.75-1.16-.85-.38-1.69-.76-2.53-1.16-.02-.01-.05-.01-.07-.03-.19-.09-.38-.18-.56-.27h-.01c-4.605-2.21-9.046-4.747-13.29-7.59-1.36-.91-2.7-1.85-4.02-2.82-1.06-.79-2.1-1.59-3.14-2.41-5.13-4.081-9.88-8.62-14.19-13.56v-.01c-.31-.34-.6-.69-.9-1.04-.05-.05-.09-.1-.13-.14-.19-.23-.37-.45-.56-.67v-.01c-.25-.29-.5-.59-.74-.89-.06-.07-.11-.13-.16-.19v-.01c-.2-.24-.39-.48-.59-.73-.1-.12-.19-.24-.29-.36v-.01c-.59-.74-1.16-1.48-1.73-2.24-.15-.2-.3-.41-.46-.62-.72-.97-1.42-1.96-2.1-2.95v-.01c-.26-.37-.51-.75-.77-1.12-.25-.38-.5-.76-.75-1.14-.25-.4-.51-.79-.76-1.19l-.03-.06c-.25-.38-.5-.78-.74-1.17-.19-.32-.38-.63-.57-.94-.12-.21-.25-.42-.37-.64-.047-.068-.09-.138-.13-.21-.28-.49-.56-.98-.84-1.47-.33-.57-.65-1.15-.97-1.73-.12-.24-.25-.48-.38-.72-.05-.08-.09-.16-.13-.24-.15-.28-.3-.57-.44-.86-.15-.28-.3-.57-.45-.86-.14-.28-.29-.57-.43-.86-.11-.22-.21-.44-.32-.66-.007-.018-.017-.035-.03-.05-.05-.11-.1-.21-.14-.31-.012-.015-.022-.032-.03-.05-.11-.22-.21-.45-.32-.67-.14-.29-.27-.59-.41-.88-.09-.2-.19-.41-.28-.62-.13-.29-.27-.58-.39-.88-.14-.3-.27-.6-.4-.91-.037-.075-.07-.152-.1-.23-.07-.14-.12-.28-.18-.42-.16-.37-.32-.75-.47-1.12-.18-.42-.35-.85-.51-1.27-.16-.39-.31-.79-.46-1.19l-.06-.14c-2.33-6.137-4.097-12.473-5.28-18.93v-.01c-.667-3.686-1.144-7.405-1.43-11.14-.01-.21-.03-.41-.04-.61-.18-2.53-.26-5.07-.26-7.62 0-1.13.02-2.25.05-3.37.698-23.424 9.051-45.974 23.78-64.2.32-.4.64-.8.97-1.2s.67-.79 1-1.18c10.963-12.8379 24.788-22.9203 40.362-29.4346 15.574-6.5142 32.461-9.278 49.299-8.0685 16.838 1.2096 33.156 6.3585 47.639 15.0319 14.483 8.6733 26.726 20.6282 35.74 34.9012.49.78.98 1.57 1.45 2.36.48.8.94 1.6 1.4 2.41 9.06 16.103 13.806 34.273 13.78 52.75z" fill="#f2f2f2"/></mask><mask id="b" height="132" maskUnits="userSpaceOnUse" width="71" x="639" y="132"><path clip-rule="evenodd" d="m645.716 142.705c-.67.225 0-2.656 1.601-3.71 4.911-3.231 19.529-8.012 29.526-5.937 6.696 1.39 15.048 4.879 20.396 9.327 4.822 4.01 9.209 11.079 10.917 17.29 1.792 6.521 2.47 15.595 0 21.284-2.942 6.776-13.36 14.079-13.636 15.048-.314 1.107.917 5.431 1.818 9.987.901 4.555.491 16.155 0 18.047-.785 3.024-4.993 4.51-6.828 4.729-10.146 1.209-17.5 13.804-20.561 17.026 0 0-20.436 20.518-28.525 17.846-1.419-.468.708-17.464 2.127-24.749 1.42-7.285 15.34-20.285 16.231-24.569.526-2.524.613-6.917.668-7.118 1.313-9.051 1.087-9.786 3.002-13.474 1.915-3.689 3.4-3.905 2.939-4.979-2.248-5.25-9.481-21.311-11.122-26.563-1.956-6.26-1.031-4.203-3.048-10.442-.892-2.762-2.029-10.211-5.505-9.043z" fill="#fff" fill-rule="evenodd"/></mask><g fill="#f0f0f0"><path d="m168.019 302.894c-36.592-36.022-52.046-73.602-43.518-105.816 10.944-41.34 59.565-69.924 133.394-78.421l.273 2.372c-72.802 8.378-120.681 36.32-131.36 76.66-8.3 31.35 6.931 68.109 42.886 103.505z"/><path d="m521.067 430.761c-45.668 0-95.296-6.787-144.589-19.837-60.959-16.138-116.851-40.496-161.635-70.443l1.326-1.983c44.568 29.801 100.213 54.049 160.919 70.119 54.86 14.524 110.13 21.254 159.817 19.478l.086 2.384c-5.247.189-10.555.283-15.924.282z"/><path d="m625.837 415.753-.764-2.261c40.844-13.809 66.391-36.055 73.878-64.334 9.516-35.95-11.159-77.667-58.219-117.468-47.3-40.002-115.508-73.194-192.062-93.46l.611-2.307c76.888 20.355 145.428 53.719 192.991 93.945 47.804 40.429 68.752 83.01 58.986 119.9-7.702 29.09-33.782 51.907-75.421 65.985z"/><path d="m250.79 431.758c-89.737-39.799-158.8851-91.433-194.7071-145.392l1.988-1.321c35.5743 53.586 104.3601 104.915 193.6861 144.532z"/><path d="m566.296 500.707c-9.256 0-18.67-.207-28.242-.62l.102-2.384c71.433 3.093 134.46-5.456 182.279-24.726l.893 2.214c-41.714 16.808-94.882 25.516-155.032 25.516z"/><path d="m514.229 120.797c-14.831-4.829-30.087-9.325-45.343-13.364-87.792-23.2414-174.093-31.4934-249.575-23.859l-.24-2.3748c75.764-7.6595 162.36.6123 250.426 23.9268 15.299 4.05 30.598 8.56 45.471 13.402z"/><path d="m111.936 306.474c-36.5915-36.022-52.0461-73.602-43.518-105.816 10.9444-41.34 59.565-69.924 133.394-78.421l.273 2.371c-72.802 8.379-120.6805 36.321-131.3597 76.66-8.2998 31.351 6.9305 68.11 42.8857 103.506z"/><path d="m464.984 434.341c-45.668 0-95.295-6.787-144.589-19.837-60.959-16.138-116.851-40.497-161.635-70.443l1.326-1.984c44.568 29.802 100.213 54.049 160.919 70.12 54.86 14.524 110.13 21.253 159.817 19.477l.086 2.385c-5.247.188-10.555.282-15.924.282z"/><path d="m569.754 419.333-.764-2.261c40.844-13.81 66.391-36.055 73.878-64.335 9.517-35.949-11.159-77.666-58.219-117.467-47.3-40.002-115.508-73.194-192.061-93.46l.61-2.308c76.888 20.356 145.428 53.72 192.991 93.946 47.804 40.429 68.752 83.01 58.986 119.9-7.701 29.09-33.782 51.907-75.421 65.985z"/><path d="m194.707 435.338c-89.736-39.799-158.885-91.433-194.707-145.393l1.98799-1.32c35.57441 53.586 104.36001 104.914 193.68601 144.532z"/><path d="m510.213 504.287c-9.256 0-18.67-.207-28.242-.62l.102-2.384c71.434 3.093 134.46-5.456 182.279-24.726l.893 2.214c-41.714 16.808-94.881 25.516-155.032 25.516z"/><path d="m458.147 124.377c-14.832-4.829-30.088-9.325-45.344-13.364-87.792-23.2415-174.093-31.4935-249.575-23.8591l-.24-2.3749c75.764-7.6594 162.36.6124 250.426 23.927 15.299 4.05 30.598 8.559 45.471 13.402z"/></g><path d="m40.6767 242.553c17.1498-19.228 44.5065-30.947 69.2983-23.932-22.8715 16.185-39.2805 39.939-46.3241 67.058-2.6785 10.468-4.5676 22.39-13.2738 28.791-5.4171 3.983-12.5949 4.934-19.2568 4.027-6.6622-.907-12.9616-3.498-19.1759-6.065l-1.6722.145c4.8077-25.313 13.2547-50.796 30.4045-70.024z" fill="#f2f2f2"/><path d="m109.899 219.156c-20.7274 5.019-39.3465 16.441-53.2126 32.644-3.0471 3.435-5.5335 7.329-7.368 11.538-1.6545 4.158-2.1652 8.684-1.4792 13.106.5568 4.136 1.6053 8.303 1.1469 12.503-.2666 2.146-.9838 4.211-2.1046 6.061-1.1209 1.85-2.6201 3.441-4.3993 4.671-4.3534 3.179-9.5896 4.604-14.7585 5.82-5.7391 1.35-11.7216 2.661-16.3999 6.475-.5668.462-1.2507-.445-.6847-.906 8.1394-6.636 19.4513-5.784 28.4568-10.604 4.2021-2.249 7.7519-5.778 8.615-10.62.7547-4.235-.3229-8.532-.9228-12.716-.7325-4.304-.3998-8.722.9689-12.869 1.6142-4.289 3.9466-8.272 6.8972-11.779 6.5168-8 14.251-14.927 22.9194-20.525 9.8577-6.444 20.7451-11.154 32.1914-13.927.708-.171.838.958.134 1.128z" fill="#fff"/><path d="m60.8441 246.32c-2.4026-2.696-3.7689-6.158-3.8548-9.768-.0859-3.609 1.1141-7.132 3.3858-9.939.4617-.566 1.3634.124.9012.691-2.1203 2.61-3.2378 5.892-3.151 9.253.0869 3.361 1.3725 6.581 3.6247 9.078.4888.543-.4199 1.225-.9059.685z" fill="#fff"/><path d="m47.2806 274.384c7.3652.489 14.6441-1.816 20.3854-6.455.5685-.46 1.2526.447.6848.906-5.9835 4.817-13.5633 7.2-21.2265 6.674-.7304-.051-.5701-1.175.1563-1.125z" fill="#fff"/><path d="m87.6866 226.995c.7123 1.237 1.7206 2.277 2.9344 3.028 1.2137.75 2.595 1.188 4.0196 1.273.7306.041.5695 1.166-.1564 1.125-1.5735-.102-3.0983-.587-4.4412-1.413-1.3428-.826-2.4629-1.969-3.2623-3.328-.0861-.122-.1225-.272-.102-.42.0205-.147.0965-.282.2125-.376.1204-.09.2715-.129.4205-.108.1489.021.2836.1.3749.219z" fill="#fff"/><path d="m145.166 298.443c-.457-.013-.914-.026-1.376-.031-6.145-.141-12.291.218-18.377 1.072-.472.059-.949.125-1.418.197-14.642 2.215-28.745 7.129-41.5929 14.493-5.1098 2.934-9.9889 6.254-14.5951 9.929-6.361 5.075-12.8542 11.085-20.3013 13.686-.7739.28-1.5644.512-2.367.694l-34.56-23.877c-.0513-.094-.1084-.18-.1601-.274l-1.42348-.89c.22432-.207.46141-.416.68573-.622.12963-.12.26699-.235.39655-.355.0889-.078.1782-.156.2539-.232.0294-.026.0593-.052.0834-.071.0757-.075.154-.138.2243-.206 1.322-1.171 2.6546-2.336 3.9977-3.493.0055-.008.0055-.008.0186-.01 10.2564-8.792 21.3368-16.804 33.281-22.88.3594-.183.7239-.373 1.0991-.545 5.3992-2.709 11.0106-4.972 16.7784-6.767 3.1614-.972 6.3701-1.784 9.6136-2.432 8.3839-1.658 16.9766-1.988 25.4626-.976 16.917 2.02 33 9.427 43.485 22.577.268.337.529.668.791 1.013z" fill="#f2f2f2"/><path d="m144.786 298.828c-19.571-8.472-41.314-10.563-62.1411-5.974-4.5011.908-8.8308 2.521-12.8299 4.777-3.8245 2.324-6.957 5.63-9.0718 9.574-2.0458 3.638-3.7171 7.596-6.6116 10.673-1.505 1.553-3.3213 2.771-5.3298 3.572-2.0086.802-4.1639 1.171-6.3248 1.081-5.39-.083-10.4287-2.097-15.2878-4.239-5.395-2.377-10.9611-4.932-16.9927-4.703-.73087.027-.73113-1.108-.0014-1.136 10.494-.398 19.0131 7.093 29.1053 8.667 4.7093.734 9.6683.053 13.2729-3.294 3.1521-2.926 4.8791-7.006 6.9187-10.708 2.0067-3.877 4.9324-7.205 8.5216-9.691 3.8712-2.453 8.1316-4.229 12.5988-5.253 10.0203-2.464 20.3656-3.338 30.6576-2.589 11.75.79 23.279 3.584 34.088 8.262.668.29.092 1.269-.572.981z" fill="#fff"/><path d="m89.264 290.982c-.2955-3.599.6978-7.186 2.8026-10.12s5.184-5.024 8.6874-5.897c.71-.174 1.014.92.303 1.094-3.2637.808-6.1318 2.755-8.0862 5.491s-2.8663 6.081-2.5713 9.43c.0633.728-1.0726.726-1.1355.002z" fill="#fff"/><path d="m61.5375 305.223c5.5861 4.825 12.7856 7.368 20.1628 7.12.7309-.025.7314 1.111.0013 1.136-7.6773.243-15.1641-2.418-20.9661-7.452-.5527-.48.2523-1.281.802-.804z" fill="#fff"/><path d="m122.331 291.713c-.176 1.417.003 2.854.52 4.184.517 1.331 1.356 2.511 2.443 3.437.558.473-.247 1.274-.802.804-1.196-1.028-2.121-2.333-2.696-3.802-.574-1.468-.781-3.055-.601-4.621.005-.149.066-.291.171-.397.106-.105.247-.167.396-.172.151.001.295.061.401.167.107.106.167.25.168.4z" fill="#fff"/><path d="m712.665 400.177c-9.69-23.874-31.516-44.106-57.223-45.831 16.101 22.931 23.571 50.817 21.091 78.726-.996 10.76-3.224 22.624 2.824 31.578 3.764 5.572 10.204 8.88 16.784 10.265 6.579 1.385 13.383 1.062 20.098.733l1.527.698c3.979-25.456 4.588-52.295-5.101-76.169z" fill="#f2f2f2"/><path d="m655.333 354.876c17.835 11.693 31.532 28.708 39.146 48.629 1.715 4.259 2.748 8.762 3.061 13.343.161 4.473-.879 8.907-3.012 12.841-1.914 3.709-4.302 7.28-5.282 11.39-.47 2.111-.489 4.297-.055 6.416s1.311 4.122 2.573 5.878c3.032 4.457 7.485 7.559 11.944 10.441 4.952 3.201 10.146 6.446 13.27 11.611.378.625 1.327.001.949-.623-5.435-8.986-16.376-11.985-23.237-19.552-3.202-3.53-5.359-8.047-4.544-12.898.712-4.242 3.171-7.927 5.142-11.665 2.137-3.808 3.309-8.081 3.413-12.446-.079-4.582-.937-9.118-2.537-13.412-3.449-9.726-8.405-18.848-14.688-27.034-7.118-9.383-15.789-17.478-25.637-23.937-.61-.399-1.111.621-.506 1.018z" fill="#fff"/><path d="m692.405 396.946c3.169-1.731 5.619-4.532 6.913-7.903s1.348-7.093.152-10.5c-.245-.688-1.326-.341-1.081.349 1.12 3.17 1.069 6.637-.142 9.773-1.212 3.137-3.505 5.737-6.465 7.332-.643.347-.016 1.294.623.949z" fill="#fff"/><path d="m695.747 427.937c-7.101-2.015-13.182-6.632-17.03-12.931-.381-.625-1.33-.001-.95.623 4.017 6.547 10.355 11.339 17.749 13.42.705.197.932-.916.231-1.112z" fill="#fff"/><path d="m673.619 369.724c-1.087.925-2.386 1.566-3.782 1.865-1.395.299-2.843.247-4.213-.152-.702-.206-.928.907-.231 1.112 1.516.434 3.115.49 4.658.163 1.542-.327 2.981-1.027 4.191-2.039.122-.085.207-.214.237-.36s.004-.299-.074-.426c-.083-.125-.212-.212-.36-.243-.147-.031-.3-.002-.426.08z" fill="#fff"/><path d="m595.469 417.696c.435.142.87.284 1.307.434 5.835 1.933 11.502 4.336 16.948 7.186.424.214.851.437 1.269.663 13.045 7.007 24.677 16.375 34.302 27.628 3.826 4.482 7.306 9.248 10.409 14.257 4.285 6.918 8.381 14.761 14.52 19.713.635.524 1.302 1.008 1.996 1.45l40.575-10.873c.08-.071.163-.133.243-.204l1.64-.36c-.142-.27-.295-.546-.437-.816-.082-.156-.173-.311-.254-.467-.058-.104-.116-.208-.161-.305-.019-.034-.039-.069-.055-.094-.046-.097-.099-.182-.142-.269-.852-1.548-1.715-3.093-2.591-4.634-.003-.01-.003-.01-.014-.016-6.705-11.727-14.448-22.998-23.655-32.735-.277-.292-.557-.595-.852-.883-4.175-4.365-8.699-8.383-13.528-12.012-2.651-1.978-5.4-3.821-8.237-5.522-7.339-4.379-15.321-7.577-23.654-9.477-16.611-3.784-34.248-2.212-48.543 6.649-.366.227-.723.451-1.086.687z" fill="#f2f2f2"/><path d="m595.698 418.187c21.281-1.402 42.461 3.938 60.534 15.259 3.934 2.369 7.47 5.342 10.478 8.811 2.821 3.475 4.66 7.641 5.326 12.066.704 4.114.948 8.404 2.64 12.275.896 1.968 2.197 3.725 3.819 5.156 1.622 1.43 3.528 2.501 5.594 3.143 5.104 1.734 10.527 1.53 15.823 1.146 5.88-.426 11.981-.961 17.585 1.281.679.272 1.061-.797.383-1.069-9.75-3.901-20.291.291-30.325-1.62-4.682-.891-9.124-3.198-11.394-7.562-1.985-3.816-2.24-8.239-2.917-12.411-.587-4.326-2.224-8.443-4.769-11.992-2.821-3.611-6.237-6.716-10.1-9.181-8.609-5.689-18.059-9.989-28.004-12.742-11.333-3.206-23.13-4.449-34.881-3.676-.728.048-.514 1.164.208 1.116z" fill="#fff"/><path d="m650.627 429.458c1.488-3.29 1.758-7.002.762-10.472-.997-3.471-3.194-6.475-6.2-8.475-.61-.402-1.264.526-.654.929 2.803 1.858 4.85 4.656 5.771 7.889.921 3.234.656 6.691-.748 9.746-.304.665.767 1.044 1.069.383z" fill="#fff"/><path d="m671.954 452.19c-6.883 2.667-14.518 2.642-21.383-.071-.68-.269-1.062.8-.383 1.069 7.149 2.81 15.095 2.82 22.251.029.682-.266.193-1.292-.485-1.027z" fill="#fff"/><path d="m619.238 419.034c-.31 1.392-.962 2.687-1.896 3.765-.934 1.079-2.122 1.909-3.456 2.416-.685.258-.195 1.283.485 1.027 1.472-.567 2.782-1.485 3.817-2.675s1.762-2.615 2.119-4.151c.046-.141.036-.296-.028-.43-.064-.135-.176-.241-.315-.296-.142-.05-.298-.042-.434.023-.135.064-.241.179-.292.32z" fill="#fff"/><path d="m524.682 481.47c5.273 0 9.547-4.274 9.547-9.546s-4.274-9.546-9.547-9.546c-5.272 0-9.546 4.274-9.546 9.546s4.274 9.546 9.546 9.546z" fill="#7f1052"/><path d="m558.496 318.88c5.272 0 9.546-4.274 9.546-9.546s-4.274-9.546-9.546-9.546-9.546 4.274-9.546 9.546 4.274 9.546 9.546 9.546z" fill="#e6e6e6"/><path d="m380.867 54.0918c5.273 0 9.546-4.2739 9.546-9.546s-4.273-9.546-9.546-9.546c-5.272 0-9.546 4.2739-9.546 9.546s4.274 9.546 9.546 9.546z" fill="#e6e6e6"/><path d="m180.826 410.73c0 2.43.08 4.86.25 7.27.18 2.88.49 5.74.91 8.58 1.411 9.562 4.109 18.89 8.02 27.73.199.44.399.88.6 1.32l.3.66c.1.22.21.44.31.65.14.29.27.57.41.85.17.35.34.7.52 1.05.02.04.04.09.07.14.15.3.29.59.45.89.029.065.062.129.1.19.17.34.35.69.53 1.03.2.36.39.73.59 1.09.48.89.98 1.77 1.49 2.65.15.26.3.52.46.78.14.24.28.48.43.72.1.16.2.33.3.49.16.27.32.53.49.8.37.59.75 1.18 1.12 1.77h.01c.17.27.35.54.53.8v.01c.53.8 1.08 1.6 1.63 2.39.001 0 .002 0 .003.001.002 0 .003.001.004.002s.001.002.002.003c0 .001.001.002.001.004.44.64.9 1.26 1.35 1.88v.01c.3.39.59.79.89 1.18.24.32.49.65.74.97.05.07.11.13.16.2v.01c.07.09.14.17.21.26 1.06 1.36 2.153 2.69 3.28 3.99l.18.21c.06.07.13.14.19.22.1.11.19.22.29.33.09.11.19.22.29.33 5.873 6.616 12.532 12.489 19.83 17.49.97.67 1.96 1.32 2.95 1.95.25.16.5.32.75.47.07.05.15.1.22.15.14.08.27.16.41.25.13.08.26.16.4.24.53.33 1.07.65 1.61.97.13.08.27.16.41.24.13.07.27.15.41.23 0 .01 0 .01.01.01h.01v.01h.01c.67.39 1.35.77 2.04 1.14.37.2.75.41 1.13.6.86.47 1.73.92 2.6 1.35.31.15.63.3.94.46.26.12.52.25.78.37.08.04.15.07.22.11.22.1.43.2.65.3.24.11.48.22.71.33.27.12.53.24.8.35 1 .45 2.01.88 3.02 1.29 3.619 1.484 7.318 2.766 11.08 3.84.17.05.35.1.53.15 1.61.45 3.23.86 4.86 1.23 2.85.66 5.726 1.2 8.63 1.62h.02c.35.05.69.1 1.04.15.03 0 .06.01.1.01 0 .01 0 .01.01 0 .38.05.77.1 1.15.15.026.008.053.011.08.01.36.05.73.09 1.09.13.39.04.78.08 1.17.12.3.03.6.06.9.09.025.009.053.012.08.01.27.02.54.05.81.07h.04c.23.02.47.04.7.06 2.79.22 5.59.32 8.43.32 3.07 0 6.12-.12 9.13-.38h.03c.65-.06 1.29-.12 1.93-.18.17-.02.33-.03.5-.05.03 0 .07-.01.1-.01.05-.01.1-.01.16-.02.027.001.054-.002.08-.01.22-.02.44-.05.67-.07l.75-.09c.25-.03.5-.07.75-.1.06-.01.11-.01.17-.02.18-.02.36-.05.54-.08.09-.01.18-.02.26-.03.18-.03.35-.05.53-.08h.01c5.487-.79 10.904-2.01 16.2-3.65.28-.09.56-.17.84-.26.01 0 .02-.01.03-.01.08-.03.17-.05.25-.08.75-.24 1.49-.49 2.23-.75 1.02-.34 2.03-.71 3.04-1.09.27-.11.54-.21.81-.32.55-.21 1.09-.43 1.63-.65.92-.37 1.84-.76 2.75-1.16.85-.38 1.69-.76 2.53-1.16.02-.01.05-.01.07-.03.19-.09.38-.18.56-.27h.01c4.605-2.21 9.046-4.747 13.29-7.59 1.36-.91 2.7-1.85 4.02-2.82 1.06-.79 2.1-1.59 3.14-2.41 5.13-4.081 9.88-8.62 14.19-13.56v-.01c.31-.34.6-.69.9-1.04.05-.05.09-.1.13-.14.19-.23.37-.45.56-.67v-.01c.25-.29.5-.59.74-.89.06-.07.11-.13.16-.19v-.01c.2-.24.39-.48.59-.73.1-.12.19-.24.29-.36v-.01c.59-.74 1.16-1.48 1.73-2.24.15-.2.3-.41.46-.62.72-.97 1.42-1.96 2.1-2.95v-.01c.26-.37.51-.75.77-1.12.25-.38.5-.76.75-1.14.25-.4.51-.79.76-1.19l.03-.06c.25-.38.5-.78.74-1.17.19-.32.38-.63.57-.94.12-.21.25-.42.37-.64.047-.068.09-.138.13-.21.28-.49.56-.98.84-1.47.33-.57.65-1.15.97-1.73.12-.24.25-.48.38-.72.05-.08.09-.16.13-.24.15-.28.3-.57.44-.86.15-.28.3-.57.45-.86.14-.28.29-.57.43-.86.11-.22.21-.44.32-.66.007-.018.017-.035.03-.05.05-.11.1-.21.14-.31.012-.015.022-.032.03-.05.11-.22.21-.45.32-.67.14-.29.27-.59.41-.88.09-.2.19-.41.28-.62.13-.29.27-.58.39-.88.14-.3.27-.6.4-.91.037-.075.07-.152.1-.23.07-.14.12-.28.18-.42.16-.37.32-.75.47-1.12.18-.42.35-.85.51-1.27.16-.39.31-.79.46-1.19l.06-.14c2.33-6.137 4.097-12.473 5.28-18.93v-.01c.667-3.686 1.144-7.405 1.43-11.14.01-.21.03-.41.04-.61.18-2.53.26-5.07.26-7.62 0-1.13-.02-2.25-.05-3.37-.698-23.424-9.051-45.974-23.78-64.2-.32-.4-.64-.8-.97-1.2s-.67-.79-1-1.18c-10.963-12.838-24.788-22.92-40.362-29.435-15.574-6.514-32.461-9.278-49.299-8.068-16.838 1.209-33.156 6.358-47.639 15.032-14.483 8.673-26.726 20.628-35.74 34.901-.49.78-.98 1.57-1.45 2.36-.48.8-.94 1.6-1.4 2.41-9.06 16.103-13.806 34.273-13.78 52.75z" fill="#f2f2f2"/><path d="m284.283 340.263c17.716 4.546 35.871 7.167 54.149 7.816 2.764.15 5.534.132 8.296-.057 6.069-.51 11.267-2.418 17.057-3.46 2.783-.5 5.884-.865 8.686-1.405-.648-.803-1.307-1.597-1.978-2.38-6.042.51-12.178 2.181-18.293 2.958-10.394 1.321-22.04-.154-29.92-3.791-3.823-1.765-6.752-3.968-10.561-5.741-.518-.266-1.08-.438-1.658-.508-1.098-.033-2.183.248-3.127.811-6.391 3.227-15.671 5.849-24.284 4.406-.642.503.578 1.075 1.633 1.351z" fill="#fff"/><path d="m246.169 351.618c-.079-.014-.158-.025-.237-.039.331-.205.643-.44.931-.701z" fill="#fff"/><path d="m194.608 357.984c3.597.288 7.213.502 10.848.642 2.764.149 5.535.131 8.296-.056 6.069-.513 11.268-2.418 17.057-3.46 5.306-.954 11.754-1.414 15.123-3.531-8.707-1.507-17.729 1.561-26.707 2.703-7.263.893-14.625.53-21.764-1.075-.994 1.564-1.945 3.156-2.853 4.777z" fill="#fff"/><path d="m238.125 505.94c.86.47 1.73.92 2.6 1.35.31.15.63.3.94.46.26.12.52.25.78.37.08.04.15.07.22.11.22.1.43.2.65.3.24.11.481.22.711.33.27.12.53.24.8.35 1 .45 2.009.88 3.019 1.29 3.62 1.484 7.319 2.766 11.081 3.84.17.05.35.1.53.15 1.61.45 3.23.86 4.86 1.23 2.85.66 5.726 1.2 8.63 1.62h.02c.35.05.69.1 1.04.15.03 0 .06.01.1.01 0 .01 0 .01.01 0 .38.05.77.1 1.15.15.025.008.053.011.08.01.36.05.73.09 1.09.13.39.04.78.08 1.17.12.3.03.6.06.9.09.025.009.052.012.08.01.27.02.54.05.81.07h.04c.23.02.47.04.7.06 2.79.22 5.59.32 8.43.32 3.07 0 6.12-.12 9.13-.38h.03c.65-.06 1.29-.12 1.93-.18.17-.02.33-.03.5-.05.03 0 .07-.01.1-.01.05-.01.1-.01.16-.02.027.001.054-.002.08-.01.22-.02.44-.05.67-.07l.75-.09c.25-.03.5-.07.75-.1.06-.01.11-.01.17-.02.18-.02.36-.05.54-.08.09-.01.18-.02.26-.03.18-.03.35-.05.53-.08h.01c5.487-.79 10.904-2.01 16.2-3.65.28-.09.56-.17.84-.26-1.292-6.022-3.95-11.666-7.77-16.497-3.82-4.83-8.699-8.718-14.26-11.363 1.375-1.31 2.326-3.003 2.73-4.86.259-1.197.28-2.433.06-3.638-.22-1.204-.675-2.354-1.34-3.382-1.298-1.993-3.334-3.388-5.66-3.88l-14.82-3.1c-2.386-.465-4.859.03-6.881 1.379-2.023 1.348-3.431 3.44-3.919 5.821-.152.73-.219 1.475-.2 2.22-14.27 9.5-24.541 19.35-31.031 29.81z" fill="#5d5b70"/><path d="m281.884 460.856c17.053 0 30.876-13.823 30.876-30.875s-13.823-30.876-30.876-30.876c-17.052 0-30.875 13.824-30.875 30.876s13.823 30.875 30.875 30.875z" fill="#ffb8b8"/><path d="m262.639 456.6c-3.292-2.249-6.655-6.571-8.899-9.81-2.975-4.257-5.021-9.093-6.007-14.192-.987-5.099-.89-10.349.282-15.409.374-2.023 1.293-3.906 2.658-5.445 1.454-1.439 3.829-2.121 5.604-1.104-.484-1.297-.698-2.679-.627-4.062s.424-2.736 1.039-3.977c1.247-2.478 3.055-4.631 5.279-6.288 4.254-3.276 9.315-5.339 14.647-5.97s10.735.193 15.636 2.385c1.929.893-1.239-6.009.78-5.343 2.005.776 4.235.737 6.212-.109 1.898-.956 8.192 4.722 7.463 2.725 1.441.654 2.693 1.663 3.639 2.931s1.556 2.755 1.773 4.323c.217 1.567.034 3.164-.533 4.642-.567 1.477-1.498 2.787-2.707 3.808-1.594 1.345-3.583 2.119-5.328 3.261-3.057 2.151-5.22 5.346-6.083 8.983-.862 3.637-.362 7.464 1.404 10.758-1.835-1.18-3.85-2.055-5.964-2.592-1.061-.259-2.169-.261-3.231-.006-1.061.256-2.047.761-2.874 1.474-.691.791-1.213 1.715-1.535 2.715-.321 1-.434 2.055-.332 3.101.069 2.095.567 4.159.623 6.255.164 6.149 3.458 17.84-1.31 21.109-3.762 2.579-17.113-1.092-21.609-4.163z" fill="#2f2e41"/><path d="m303.114 275.44c-.65-.001-1.294-.131-1.894-.383-.895-.359-1.661-.981-2.197-1.783s-.817-1.747-.807-2.712v-4.887c-.001-1.025-.408-2.008-1.133-2.733s-1.708-1.132-2.733-1.134c-1.29-.001-2.527-.514-3.44-1.427-.912-.912-1.425-2.149-1.427-3.439v-66.955c.002-1.291.515-2.528 1.427-3.44s2.149-1.426 3.44-1.427h221.826c1.291.001 2.528.515 3.44 1.427s1.426 2.149 1.427 3.44v66.955c-.001 1.29-.515 2.527-1.427 3.439-.912.913-2.149 1.426-3.44 1.427h-195.855c-.508-.001-1.011.098-1.481.293-.469.194-.895.48-1.254.84l-11.062 11.062c-.445.453-.975.814-1.561 1.061-.585.246-1.214.374-1.849.376z" fill="#fff"/><path d="m303.114 276.44c-.782-.001-1.556-.157-2.277-.459-1.079-.434-2.002-1.183-2.648-2.15s-.985-2.106-.973-3.269v-4.886c0-.761-.303-1.489-.84-2.027-.537-.537-1.266-.84-2.026-.841-1.555-.001-3.047-.62-4.146-1.72-1.1-1.1-1.719-2.591-1.721-4.147v-66.954c.002-1.556.621-3.047 1.72-4.147 1.1-1.1 2.591-1.718 4.147-1.72h221.826c1.556.002 3.047.62 4.147 1.72s1.718 2.591 1.72 4.147v66.954c-.002 1.556-.62 3.047-1.72 4.147s-2.591 1.719-4.147 1.72h-195.855c-.377-.001-.75.073-1.098.217s-.664.356-.93.623l-11.062 11.062c-.537.546-1.178.981-1.885 1.278s-1.465.45-2.232.452zm-8.764-90.32c-1.025.001-2.008.409-2.733 1.134s-1.133 1.707-1.134 2.733v66.954c.001 1.025.409 2.008 1.134 2.733s1.708 1.133 2.733 1.134c1.29.002 2.527.515 3.44 1.428.912.912 1.425 2.149 1.426 3.44v4.886c.001.765.227 1.512.652 2.148s1.029 1.131 1.736 1.424c.706.292 1.483.369 2.233.22s1.439-.518 1.98-1.058l11.062-11.062c.451-.453.987-.813 1.578-1.058.591-.244 1.224-.369 1.864-.368h195.855c1.026-.001 2.009-.409 2.733-1.134.725-.725 1.133-1.708 1.134-2.733v-66.954c-.001-1.026-.409-2.008-1.134-2.733s-1.708-1.133-2.733-1.134z" fill="#3f3d56"/><path d="m497.114 215.432h-179.878c-.687 0-1.346-.273-1.832-.758-.486-.486-.759-1.145-.759-1.832 0-.688.273-1.347.759-1.832.486-.486 1.145-.759 1.832-.759h179.878c.687 0 1.346.273 1.832.759.486.485.759 1.144.759 1.832 0 .687-.273 1.346-.759 1.832-.486.485-1.145.758-1.832.758z" fill="#a9cae4"/><path d="m496.784 226.439h-179.548c-.687 0-1.346-.273-1.832-.759-.486-.485-.759-1.144-.759-1.832 0-.687.273-1.346.759-1.832.486-.485 1.145-.758 1.832-.758h179.548c.687 0 1.346.273 1.832.758.486.486.758 1.145.758 1.832 0 .688-.272 1.347-.758 1.832-.486.486-1.145.759-1.832.759z" fill="#e6e6e6"/><path d="m496.605 237.446h-179.369c-.687 0-1.346-.273-1.832-.759s-.759-1.145-.759-1.832.273-1.346.759-1.832 1.145-.759 1.832-.759h179.369c.687 0 1.346.273 1.832.759s.759 1.145.759 1.832-.273 1.346-.759 1.832-1.145.759-1.832.759z" fill="#e6e6e6"/><path d="m780.385 174.73c0 2.43-.08 4.86-.25 7.27-.179 2.88-.489 5.74-.909 8.58-1.412 9.562-4.11 18.89-8.02 27.73-.2.44-.4.88-.6 1.32l-.301.66c-.1.22-.21.44-.31.65-.14.29-.269.57-.409.85-.17.35-.341.7-.521 1.05-.02.04-.04.09-.07.14-.15.3-.289.59-.449.89-.03.065-.063.129-.101.19-.17.34-.349.69-.529 1.03-.2.36-.391.73-.59 1.09-.48.89-.98 1.77-1.49 2.65-.15.26-.301.52-.461.78-.14.24-.28.48-.43.72-.1.16-.2.33-.3.49-.16.27-.32.53-.49.8-.37.59-.75 1.18-1.12 1.77h-.01c-.17.27-.35.54-.53.8v.01c-.53.8-1.08 1.6-1.63 2.39-.001 0-.002 0-.003.001-.002 0-.003.001-.004.002s-.001.002-.002.003c0 .001-.001.003-.001.004-.44.64-.9 1.26-1.35 1.88v.01c-.3.39-.59.79-.89 1.18-.24.32-.49.65-.74.97-.05.07-.11.13-.16.2v.01c-.07.09-.14.17-.21.26-1.06 1.36-2.153 2.69-3.28 3.99l-.18.21c-.06.07-.13.14-.19.22-.1.11-.19.22-.29.33-.09.11-.19.22-.29.33-5.873 6.616-12.532 12.489-19.83 17.49-.97.67-1.96 1.32-2.95 1.95-.25.16-.5.32-.75.47-.07.05-.15.1-.22.15-.14.08-.27.16-.41.25-.13.08-.26.16-.4.24-.53.33-1.07.65-1.61.97-.13.08-.27.16-.41.24-.13.07-.27.15-.41.23 0 .01 0 .01-.01.01h-.01v.01h-.01c-.67.39-1.35.77-2.04 1.14-.37.2-.75.41-1.13.6-.86.47-1.73.92-2.6 1.35-.31.15-.63.3-.94.46-.26.12-.52.25-.78.37-.08.04-.15.07-.22.11-.22.1-.43.2-.65.3-.24.11-.48.22-.71.33-.27.12-.53.24-.8.35-1 .45-2.01.88-3.02 1.29-3.619 1.484-7.318 2.766-11.08 3.84-.17.05-.35.1-.53.15-1.61.45-3.23.86-4.86 1.23-2.85.66-5.726 1.2-8.63 1.62h-.02c-.35.05-.69.1-1.04.15-.03 0-.06.01-.1.01 0 .01 0 .01-.01 0-.38.05-.77.1-1.15.15-.026.008-.053.011-.08.01-.36.05-.73.09-1.09.13-.39.04-.78.08-1.17.12-.3.03-.6.06-.9.09-.025.009-.053.012-.08.01-.27.02-.54.05-.81.07h-.04c-.23.02-.47.04-.7.06-2.79.22-5.59.32-8.43.32-3.07 0-6.12-.12-9.13-.38h-.03c-.65-.06-1.29-.12-1.93-.18-.17-.02-.33-.03-.5-.05-.03 0-.07-.01-.1-.01-.05-.01-.1-.01-.16-.02-.027.001-.054-.002-.08-.01-.22-.02-.44-.05-.67-.07l-.75-.09c-.25-.03-.5-.07-.75-.1-.06-.01-.11-.01-.17-.02-.18-.02-.36-.05-.54-.08-.09-.01-.18-.02-.26-.03-.18-.03-.35-.05-.53-.08h-.01c-5.487-.79-10.904-2.01-16.2-3.65-.28-.09-.56-.17-.84-.26-.01 0-.02-.01-.03-.01-.08-.03-.17-.05-.25-.08-.75-.24-1.49-.49-2.23-.75-1.02-.34-2.03-.71-3.04-1.09-.27-.11-.54-.21-.81-.32-.55-.21-1.09-.43-1.63-.65-.92-.37-1.84-.76-2.75-1.16-.85-.38-1.69-.76-2.53-1.16-.02-.01-.05-.01-.07-.03-.19-.09-.38-.18-.56-.27h-.01c-4.605-2.21-9.046-4.747-13.29-7.59-1.36-.91-2.7-1.85-4.02-2.82-1.06-.79-2.1-1.59-3.14-2.41-5.13-4.081-9.88-8.62-14.19-13.56v-.01c-.31-.34-.6-.69-.9-1.04-.05-.05-.09-.1-.13-.14-.19-.23-.37-.45-.56-.67v-.01c-.25-.29-.5-.59-.74-.89-.06-.07-.11-.13-.16-.19v-.01c-.2-.24-.39-.48-.59-.73-.1-.12-.19-.24-.29-.36v-.01c-.59-.74-1.16-1.48-1.73-2.24-.15-.2-.3-.41-.46-.62-.72-.97-1.42-1.96-2.1-2.95v-.01c-.26-.37-.51-.75-.77-1.12-.25-.38-.5-.76-.75-1.14-.25-.4-.51-.79-.76-1.19l-.03-.06c-.25-.38-.5-.78-.74-1.17-.19-.32-.38-.63-.57-.94-.12-.21-.25-.42-.37-.64-.047-.068-.09-.138-.13-.21-.28-.49-.56-.98-.84-1.47-.33-.57-.65-1.15-.97-1.73-.12-.24-.25-.48-.38-.72-.05-.08-.09-.16-.13-.24-.15-.28-.3-.57-.44-.86-.15-.28-.3-.57-.45-.86-.14-.28-.29-.57-.43-.86-.11-.22-.21-.44-.32-.66-.007-.018-.017-.035-.03-.05-.05-.11-.1-.21-.14-.31-.012-.015-.022-.032-.03-.05-.11-.22-.21-.45-.32-.67-.14-.29-.27-.59-.41-.88-.09-.2-.19-.41-.28-.62-.13-.29-.27-.58-.39-.88-.14-.3-.27-.6-.4-.91-.037-.075-.07-.152-.1-.23-.07-.14-.12-.28-.18-.42-.16-.37-.32-.75-.47-1.12-.18-.42-.35-.85-.51-1.27-.16-.39-.31-.79-.46-1.19l-.06-.14c-2.33-6.137-4.097-12.473-5.28-18.93v-.01c-.667-3.686-1.144-7.405-1.43-11.14-.01-.21-.03-.41-.04-.61-.18-2.53-.26-5.07-.26-7.62 0-1.13.02-2.25.05-3.37.698-23.424 9.051-45.974 23.78-64.2.32-.4.64-.8.97-1.2s.67-.79 1-1.18c10.963-12.8379 24.788-22.9203 40.362-29.4346 15.574-6.5142 32.461-9.278 49.299-8.0685 16.838 1.2096 33.156 6.3585 47.639 15.0319 14.483 8.6733 26.726 20.6282 35.74 34.9012.49.78.98 1.57 1.45 2.36.48.8.94 1.6 1.4 2.41 9.06 16.103 13.806 34.273 13.78 52.75z" fill="#f2f2f2"/><g mask="url(#a)"><path clip-rule="evenodd" d="m664.541 191.304c-8.111 4.888-16.08 7.25-19.821 6.286-9.38-2.418-10.242-36.734-2.984-50.262 7.257-13.529 44.57-19.425 46.451 7.379.652 9.303-3.254 17.605-9.026 24.379l10.349 48.234h-30.06z" fill="#b28b67" fill-rule="evenodd"/><path clip-rule="evenodd" d="m645.716 142.705c-.67.225 0-2.656 1.601-3.71 4.911-3.231 19.529-8.012 29.526-5.937 6.696 1.39 15.048 4.879 20.396 9.327 4.822 4.01 9.209 11.079 10.917 17.29 1.792 6.521 2.47 15.595 0 21.284-2.942 6.776-13.36 14.079-13.636 15.048-.314 1.107.917 5.431 1.818 9.987.901 4.555.491 16.155 0 18.047-.785 3.024-4.993 4.51-6.828 4.729-10.146 1.209-17.5 13.804-20.561 17.026 0 0-20.436 20.518-28.525 17.846-1.419-.468.708-17.464 2.127-24.749 1.42-7.285 15.34-20.285 16.231-24.569.526-2.524.613-6.917.668-7.118 1.313-9.051 1.087-9.786 3.002-13.474 1.915-3.689 3.4-3.905 2.939-4.979-2.248-5.25-9.481-21.311-11.122-26.563-1.956-6.26-1.031-4.203-3.048-10.442-.892-2.762-2.029-10.211-5.505-9.043z" fill="#89c5cc" fill-rule="evenodd"/><g mask="url(#b)"><path clip-rule="evenodd" d="m673.777 163.62c.472-9.525 0-13.246-2.198-20.217h1.355c2.142 2.766 3.934 11.229 1.92 20.217zm26.55-.448v-.001c.236-.578.478-1.17.729-1.777l.861.414c-2.718 9.94-6.023 17.613-17.374 24.045l-.882-.618c10.734-7.548 13.036-13.181 16.666-22.063zm-16.094-11.888c-.114.862-.223 1.701-.329 2.521-1.631 12.593-2.666 20.578-11.762 35.06l1.031.316c9.971-13.431 11.551-24.393 12.022-37.82zm9.819 40.816.882 1.072c-4.417.925-7.42 4.173-10.864 7.898-3.642 3.94-7.777 8.413-14.6 11.228l-1.267-.767c7.447-3.872 10.911-7.72 13.936-11.08 3.132-3.478 5.792-6.434 11.913-8.351z" fill="#000" fill-opacity=".2" fill-rule="evenodd"/></g><g clip-rule="evenodd" fill-rule="evenodd"><path d="m659.119 202.322 13.396 5.494c-.141 3.498-.127 8.475-.111 14.178.049 17.896.119 42.934-4.504 51.821-16.019 30.786-48.91 46.822-85.543 64.683-4.91 2.394-9.887 4.821-14.901 7.321l-10.079-20.576c1.168-.828 2.325-1.66 3.472-2.497-1.583-.554-2.904-1.808-3.481-3.521-.994-2.95.591-6.147 3.542-7.141 5.994-2.02 11.586-2.871 16.726-2.502 37.539-31.632 62.81-68.662 81.483-107.26z" fill="#d56d12"/><path d="m719.57 342.437s-59.065 6.489-92.981 0c-2.801-.536-2.678-12.612-1.379-15.91 20.23-51.359 33.538-88.957 33.538-124.63 5.568 2.909 19.489.872 19.489.872 24.942 36.762 36.407 78.943 41.333 139.668z" fill="#181643"/><path d="m794.479 343.058c-34.805-99.481-106.191-143.293-106.191-143.293h-1.949-4.817-7.478c1.613 21.337-5.968 52.387-14.762 88.407-14.065 57.606-31.234 127.923-18.858 191.549 15.216 3.399 33.096 1.079 52.453-1.433 27.935-3.625 58.946-7.649 89.465 4.542-1.177-25.488-16.058-53.703-30.872-81.79-9.391-17.803-18.755-35.556-24.584-52.531 1.338-1.258 2.035-3.144 1.692-5.088l-.652-3.7c-.442-2.508-2.479-4.334-4.884-4.619-.42-1.879-.782-3.746-1.082-5.599-1.53-9.467-.553-18.823.413-28.074.529-5.079 1.056-10.126 1.163-15.143 16.775 14.944 37.081 40.999 54.215 86.162l23.656-6.961c-.905-3.36-1.852-6.665-2.84-9.916 2.738-1.509 5.966-8.675 3.66-9.87-2.437-1.262-5.022-2.14-7.748-2.643z" fill="#f29c31"/><path d="m683.115 201.017 6.462 19.872-13.013 14.896 11.76 11.707-28.451 48.715 34.793-48.618-11.551-11.804 11.551-13.164z" fill="#000" fill-opacity=".1"/></g></g><path d="m676.928 104.263c-17.716 4.546-35.871 7.166-54.149 7.816-2.764.15-5.534.131-8.296-.057-6.069-.51-11.267-2.418-17.057-3.46-2.783-.5-5.884-.865-8.686-1.405.648-.803 1.307-1.597 1.978-2.38 6.042.51 12.178 2.181 18.293 2.958 10.394 1.321 22.04-.154 29.92-3.791 3.823-1.765 6.752-3.9684 10.561-5.7415.518-.266 1.08-.4379 1.658-.5078 1.098-.0329 2.183.2486 3.127.8114 6.391 3.2269 15.671 5.8489 24.284 4.4059.642.502-.578 1.075-1.633 1.351z" fill="#fff"/><path d="m715.042 115.618c.079-.014.158-.025.237-.039-.331-.205-.643-.44-.931-.701z" fill="#fff"/><path d="m766.603 121.984c-3.597.288-7.213.502-10.848.642-2.764.149-5.535.131-8.296-.056-6.069-.513-11.268-2.418-17.057-3.461-5.306-.953-11.754-1.413-15.123-3.53 8.707-1.507 17.728 1.561 26.707 2.703 7.263.893 14.625.53 21.764-1.075.994 1.564 1.945 3.156 2.853 4.777z" fill="#fff"/><path d="m82.8255 107.73c0 2.43.08 4.86.25 7.27.18 2.88.49 5.74.91 8.58 1.4115 9.562 4.1093 18.89 8.02 27.73l.6 1.32.3.66c.1.22.21.44.31.65.14.29.27.57.41.85.17.35.34.7.52 1.05.02.04.04.09.07.14.15.3.29.59.45.89.0294.065.0628.129.1.19.17.34.35.69.53 1.03.2.36.39.73.59 1.09.48.89.98 1.77 1.49 2.65.15.26.3.52.46.78.14.24.28.48.43.72.1.16.2.33.3.49.16.27.32.53.49.8.37.59.75 1.18 1.1205 1.77h.01c.17.27.35.54.53.8v.01c.53.8 1.08 1.6 1.63 2.39.001 0 .002 0 .003.001.002 0 .003.001.004.002s.001.002.002.003c0 .001.001.003.001.004.44.64.9 1.26 1.35 1.88v.01c.3.39.59.79.89 1.18.24.32.49.65.74.97.05.07.11.13.16.2v.01c.07.09.14.17.21.26 1.06 1.36 2.153 2.69 3.28 3.99l.18.21c.06.07.13.14.19.22.1.11.19.22.29.33.09.11.19.22.29.33 5.873 6.616 12.532 12.489 19.83 17.49.97.67 1.96 1.32 2.95 1.95.25.16.5.32.75.47.07.05.15.1.22.15.14.08.27.16.41.25.13.08.26.16.4.24.53.33 1.07.65 1.61.97.13.08.27.16.41.24.13.07.27.15.41.23 0 .01 0 .01.01.01h.01v.01h.01c.67.39 1.35.77 2.04 1.14.37.2.75.41 1.13.6.86.47 1.73.92 2.6 1.35.31.15.63.3.94.46.26.12.52.25.78.37.08.04.15.07.22.11.22.1.43.2.65.3.24.11.48.22.71.33.27.12.53.24.8.35 1 .45 2.01.88 3.02 1.29 3.619 1.484 7.318 2.766 11.08 3.84.17.05.35.1.53.15 1.61.45 3.23.86 4.86 1.23 2.85.66 5.726 1.2 8.63 1.62h.02c.35.05.69.1 1.04.15.03 0 .06.01.1.01 0 .01 0 .01.01 0 .38.05.77.1 1.15.15.026.008.053.011.08.01.36.05.73.09 1.09.13.39.04.78.08 1.17.12l.9.09c.025.009.053.012.08.01.27.02.54.05.81.07h.04c.23.02.47.04.7.06 2.79.22 5.59.32 8.43.32 3.07 0 6.12-.12 9.13-.38h.03c.65-.06 1.29-.12 1.93-.18.17-.02.33-.03.5-.05.03 0 .07-.01.1-.01.05-.01.1-.01.16-.02.027.001.054-.002.08-.01.22-.02.44-.05.67-.07l.75-.09c.25-.03.5-.07.75-.1.06-.01.11-.01.17-.02.18-.02.36-.05.54-.08.09-.01.18-.02.26-.03.18-.03.35-.05.53-.08h.01c5.487-.79 10.904-2.011 16.2-3.65.28-.09.56-.17.84-.26.01 0 .02-.01.03-.01.08-.03.17-.05.25-.08.75-.24 1.49-.49 2.23-.75 1.02-.34 2.03-.71 3.04-1.09.27-.11.54-.21.81-.32.55-.21 1.09-.43 1.63-.65.92-.37 1.84-.76 2.75-1.16.85-.38 1.69-.76 2.53-1.16.02-.01.05-.01.07-.03.19-.09.38-.18.56-.27h.01c4.605-2.21 9.046-4.747 13.29-7.59 1.36-.91 2.7-1.85 4.02-2.82 1.06-.79 2.1-1.59 3.14-2.41 5.13-4.081 9.88-8.62 14.19-13.56v-.01c.31-.34.6-.69.9-1.04.05-.05.09-.1.13-.14.19-.23.37-.45.56-.67v-.01c.25-.29.5-.59.74-.89.06-.07.11-.13.16-.19v-.01c.2-.24.39-.48.59-.73.1-.12.19-.24.29-.36v-.01c.59-.74 1.16-1.48 1.73-2.24.15-.2.3-.41.46-.62.72-.97 1.42-1.96 2.1-2.95v-.01c.26-.37.51-.75.77-1.12.25-.38.5-.76.75-1.14.25-.4.51-.79.76-1.19l.03-.06c.25-.38.5-.78.74-1.17.19-.32.38-.63.57-.94.12-.21.25-.42.37-.64.046-.068.09-.138.13-.21.28-.49.56-.98.84-1.47.33-.57.65-1.15.97-1.73.12-.24.25-.48.38-.72.05-.08.09-.16.13-.24.15-.28.3-.57.44-.86.15-.28.3-.57.45-.86.14-.28.29-.57.43-.86.11-.22.21-.44.32-.66.007-.018.017-.035.03-.05.05-.11.1-.21.14-.31.012-.015.022-.032.03-.05.11-.22.21-.45.32-.67.14-.29.27-.59.41-.88.09-.2.19-.41.28-.62.13-.29.27-.58.39-.88.14-.3.27-.6.4-.91.037-.075.07-.152.1-.23.07-.14.12-.28.18-.42.16-.37.32-.75.47-1.12.18-.42.35-.85.51-1.27.16-.39.31-.79.46-1.19l.06-.14c2.33-6.137 4.097-12.473 5.28-18.93v-.01c.667-3.686 1.144-7.405 1.43-11.14.01-.21.03-.41.04-.61.18-2.53.26-5.07.26-7.62 0-1.13-.02-2.25-.05-3.37-.698-23.4237-9.051-45.9737-23.78-64.2-.32-.4001-.64-.8001-.97-1.2001s-.67-.79-1-1.18c-10.963-12.8378-24.788-22.9202-40.362-29.43449-15.574-6.51425-32.461-9.277999-49.299-8.068469-16.838 1.209529-33.156 6.358489-47.639 15.031859-14.483 8.6733-26.726 20.6283-35.7404 34.9011-.49.78-.98 1.5701-1.45 2.3601-.48.8-.94 1.6-1.4 2.41-9.0594 16.1032-13.806 34.2733-13.7801 52.75z" fill="#f2f2f2"/><path d="m186.283 37.2634c17.716 4.5458 35.871 7.1661 54.149 7.8153 2.764.1506 5.534.1317 8.296-.0564 6.069-.5104 11.267-2.4179 17.057-3.4603 2.783-.4997 5.884-.8651 8.686-1.4051-.648-.8033-1.307-1.5967-1.978-2.3803-6.042.5104-12.178 2.1815-18.293 2.9579-10.394 1.3218-22.04-.1531-29.92-3.7908-3.823-1.7651-6.752-3.9681-10.561-5.7412-.518-.266-1.08-.4379-1.658-.5078-1.098-.0329-2.183.2486-3.127.8114-6.391 3.2266-15.671 5.8487-24.284 4.406-.642.5024.578 1.0746 1.633 1.3513z" fill="#fff"/><path d="m148.169 48.6184c-.079-.0143-.158-.0255-.237-.0392.331-.205.643-.4398.931-.7013z" fill="#fff"/><path d="m96.6077 54.9841c3.5973.2875 7.2133.5015 10.8483.6421 2.764.1493 5.535.1304 8.296-.0564 6.069-.5131 11.268-2.4179 17.057-3.4603 5.306-.9538 11.754-1.4131 15.123-3.5302-8.707-1.5071-17.729 1.5609-26.707 2.7027-7.263.8931-14.625.5295-21.7642-1.0746-.994 1.5636-1.9451 3.1558-2.8531 4.7767z" fill="#fff"/><path d="m140.125 202.94c.86.47 1.73.92 2.6 1.35.31.15.63.3.94.46.26.12.52.25.78.37.08.04.15.07.22.11.22.1.43.2.65.3.24.11.481.22.711.33.27.12.53.24.8.35 1 .45 2.009.88 3.019 1.29 3.62 1.484 7.319 2.766 11.081 3.84.17.05.35.1.53.15 1.61.45 3.23.86 4.86 1.23 2.85.66 5.726 1.2 8.63 1.62h.02c.35.05.69.1 1.04.15.03 0 .06.01.1.01 0 .01 0 .01.01 0 .38.05.77.1 1.15.15.025.008.053.011.08.01.36.05.73.09 1.09.13.39.04.78.08 1.17.12l.9.09c.025.009.052.012.08.01.27.02.54.05.81.07h.04c.23.02.47.04.7.06 2.79.22 5.59.32 8.43.32 3.07 0 6.12-.12 9.13-.38h.03c.65-.06 1.29-.12 1.93-.18.17-.02.33-.03.5-.05.03 0 .07-.01.1-.01.05-.01.1-.01.16-.02.027.001.054-.002.08-.01.22-.02.44-.05.67-.07l.75-.09c.25-.03.5-.07.75-.1.06-.01.11-.01.17-.02.18-.02.36-.05.54-.08.09-.01.18-.02.26-.03.18-.03.35-.05.53-.08h.01c5.487-.79 10.904-2.01 16.2-3.65.28-.09.56-.17.84-.26-1.292-6.022-3.95-11.666-7.77-16.497-3.82-4.83-8.699-8.718-14.26-11.363 1.375-1.31 2.326-3.003 2.73-4.86.259-1.197.28-2.433.06-3.638-.22-1.204-.675-2.354-1.34-3.382-1.298-1.993-3.334-3.388-5.66-3.88l-14.82-3.1c-2.386-.465-4.859.03-6.881 1.379-2.023 1.348-3.431 3.44-3.919 5.821-.152.73-.219 1.475-.2 2.22-14.27 9.5-24.541 19.35-31.031 29.81z" fill="#1883c6"/><path d="m198.754 153.706c19.923 0 36.073-16.15 36.073-36.073 0-19.9227-16.15-36.0732-36.073-36.0732s-36.073 16.1505-36.073 36.0732c0 19.923 16.15 36.073 36.073 36.073z" fill="#9e616a"/><path d="m193.628 151.778c-9.031 2.439-18.987-.804-26.035-6.955s-11.456-14.867-13.997-23.87c-1.86-6.593-2.742-13.912.194-20.103 2.936-6.1897 10.837-10.366 16.933-7.2392-3.761-4.3812-1.882-11.6277 2.51-15.3757s10.423-4.8226 16.167-5.41c8.336-.8525 16.946-.9479 24.878 1.7527 7.933 2.7006 15.14 8.6049 17.622 16.6081 2.536 1.1805 5.391 1.4868 8.12.8708 2.728-.6159 5.175-2.1194 6.957-4.2748.46 2.4755.091 5.0335-1.05 7.2781s-2.989 4.0508-5.26 5.139l12.154-3.9403c2.09 4.4243-1.572 9.9003-6.256 11.3173-4.683 1.416-9.739-.132-14.184-2.179-4.444-2.047-8.751-4.635-13.579-5.4332-4.827-.7983-10.498.7532-12.731 5.1072-1.17 2.28-1.231 4.951-1.91 7.422s-2.399 5.034-4.954 5.236c-1.614.128-3.195-.732-4.804-.556-.988.194-1.898.673-2.618 1.376-.72.704-1.219 1.602-1.437 2.585-.4 1.973-.405 4.005-.014 5.98l3.087 23.598z" fill="#2f2e41"/></svg>